<!-- Generated by IcoMoon.io -->
<svg version="1.1" xmlns="http://www.w3.org/2000/svg" width="46" height="32" viewBox="0 0 46 32">
<title>JSLogos-02</title>
<path fill="#fff" d="M6.707 2.198c0.783 0 1.85 0.084 4.315 0.084 1.71 0 2.774-0.084 3.616-0.084 0.14 0.112 0.14 0.98-0.028 1.092-0.646 0.112-1.148 0.225-1.513 0.309-0.477 0.14-0.646 0.393-0.671 1.064-0.056 1.204-0.056 9.834-0.14 12.358-0.112 2.212-0.365 3.781-1.176 5.21-1.485 2.633-3.866 4.062-5.744 4.062-1.064 0-2.046-0.421-2.324-0.98-0.028-0.084-0.112-0.393-0.112-0.449 0.084-0.533 0.477-1.71 0.674-2.128 0.839 0.561 2.437 1.26 3.335 1.26 0.674 0 1.289-0.168 1.766-0.755 0.755-0.98 0.867-1.906 0.896-4.343 0.028-3.588 0.028-12.386-0.056-13.786-0.056-0.73-0.14-1.232-0.924-1.457-0.533-0.14-1.036-0.225-1.962-0.365-0.146-0.166-0.090-0.98 0.051-1.092z"></path>
<path fill="#fff" d="M17.972 2.591c-0.084-0.056-0.253-0.365-0.168-0.533 0.281-0.505 1.401-1.541 1.934-1.541 1.092 0 1.822 1.204 1.822 2.465 0 2.465-2.577 3.95-3.978 4.287-0.14-0.028-0.393-0.786-0.337-0.867 1.569-0.646 2.243-1.653 2.243-2.493-0.003-0.615-0.648-1.064-1.516-1.317z"></path>
<path fill="#fff" d="M26.77 18.003c0.699 0.561 1.71 0.811 2.717 0.811 1.204 0 2.914-0.674 2.914-2.802 0-1.738-1.064-2.493-3.669-3.95-2.689-1.485-4.371-2.802-4.371-5.435 0-3.11 2.521-4.848 5.688-4.848 2.131 0 3.335 0.393 4.567 0.533-0.197 0.924-0.365 2.746-0.477 4.118-0.084 0.197-0.952 0.197-1.092 0.028-0.168-1.485-0.393-2.381-1.036-2.858-0.674-0.477-1.569-0.618-2.352-0.618-1.906 0-2.83 1.485-2.83 2.689 0 1.597 0.702 2.268 1.934 3.054 1.148 0.727 2.717 1.401 3.728 1.99 1.569 0.924 2.633 2.103 2.633 4.118 0 2.689-2.296 5.294-6.474 5.294-1.794 0-3.532-0.618-4.259-0.896-0.253-0.337-0.839-3.447-0.924-4.483 0.056-0.253 1.008-0.477 1.176-0.365 0.528 1.682 1.114 2.886 2.125 3.616z"></path>
<path fill="#fff" d="M6.243 11.288c0.477-0.564 0.797-1.159 0.96-1.785s0.084-1.23-0.239-1.811c-0.244-0.396-0.559-0.668-0.94-0.817-0.385-0.149-0.789-0.202-1.213-0.154s-0.828 0.16-1.213 0.34c-0.385 0.18-0.705 0.396-0.96 0.648-0.258 0.261-0.415 0.508-0.474 0.744s-0.045 0.435 0.048 0.601c0.090 0.166 0.241 0.261 0.452 0.292 0.118 0.008 0.205-0.022 0.258-0.093 0.053-0.073 0.070-0.146 0.053-0.225-0.017-0.076-0.081-0.126-0.194-0.146-0.020 0-0.039-0.003-0.053-0.006-0.025 0-0.048-0.003-0.065-0.008s-0.028-0.020-0.034-0.042c-0.031-0.087-0.025-0.194 0.017-0.328s0.132-0.278 0.275-0.438c0.298-0.309 0.674-0.55 1.134-0.721s0.912-0.227 1.362-0.171 0.811 0.272 1.086 0.646c0.306 0.477 0.396 0.988 0.269 1.533s-0.393 1.070-0.8 1.569c-0.407 0.502-0.873 0.929-1.395 1.283-0.32 0.216-0.66 0.399-1.022 0.547s-0.696 0.23-1.002 0.247c0.255-0.775 0.531-1.581 0.825-2.42 0.292-0.839 0.545-1.552 0.758-2.139s0.323-0.898 0.334-0.94c0.011-0.042-0.008-0.084-0.051-0.132-0.045-0.048-0.107-0.070-0.185-0.067s-0.146 0.037-0.202 0.098c-0.022 0.025-0.045 0.053-0.065 0.079-0.073 0.076-0.129 0.152-0.168 0.225s-0.025 0.135 0.039 0.18c-0.079 0.208-0.298 0.814-0.654 1.822s-0.733 2.1-1.123 3.279c-0.042-0.011-0.087-0.017-0.129-0.025-0.093-0.017-0.166 0-0.225 0.051s-0.090 0.107-0.093 0.171c-0.006 0.062 0.028 0.118 0.095 0.168 0.042 0.031 0.081 0.056 0.118 0.079s0.059 0.039 0.070 0.045c-0.351 1.047-0.73 2.257-1.145 3.633-0.020 0.081 0 0.149 0.059 0.202s0.132 0.070 0.222 0.056c0.090-0.014 0.149-0.067 0.182-0.16 0.382-1.272 0.775-2.527 1.182-3.765 0.357-0.003 0.724-0.073 1.109-0.208s0.744-0.309 1.078-0.519c0.626-0.379 1.179-0.851 1.656-1.415z"></path>
<path fill="#fff" d="M29.437 9.994c0.112 0 0.182-0.034 0.216-0.104 0.031-0.070 0.031-0.14 0-0.211s-0.098-0.112-0.199-0.126h-0.011c-1.011-0.059-1.993-0.081-2.948-0.070 0.146-0.508 0.281-0.954 0.41-1.339 0.017-0.011 0.042-0.039 0.079-0.090s0.067-0.107 0.095-0.168c0.028-0.062 0.042-0.121 0.048-0.177-0.003-0.087-0.037-0.154-0.095-0.205-0.062-0.051-0.132-0.073-0.216-0.070-0.081 0.006-0.146 0.045-0.188 0.115-0.053 0.101-0.104 0.219-0.152 0.354-0.051 0.135-0.112 0.326-0.188 0.575s-0.174 0.587-0.298 1.013c-0.794 0.020-1.502 0.056-2.125 0.109-0.003 0.003-0.011-0.025-0.025-0.084s-0.051-0.107-0.115-0.14c-0.065-0.034-0.135-0.031-0.211 0.011-0.039 0.025-0.079 0.051-0.112 0.070-0.109 0.062-0.194 0.126-0.258 0.194-0.062 0.067-0.056 0.149 0.020 0.244 0.042 0.062 0.098 0.107 0.168 0.129s0.16 0.034 0.278 0.031c0.115-0.003 0.272-0.014 0.474-0.031 0.365-0.034 0.96-0.062 1.783-0.090-0.219 0.786-0.446 1.628-0.682 2.521-0.028 0.020-0.062 0.045-0.098 0.070-0.138 0.098-0.474 0.331-1.005 0.699s-1.027 0.668-1.488 0.901c-0.264 0.121-0.46 0.171-0.59 0.146s-0.219-0.087-0.264-0.191c-0.056-0.132-0.059-0.303-0.008-0.514 0.042-0.177 0.118-0.345 0.222-0.511 0.112-0.098 0.216-0.199 0.309-0.295 0.028-0.034 0.048-0.067 0.056-0.101 0.065-0.045 0.132-0.084 0.205-0.115 0.062-0.022 0.109-0.031 0.143-0.022s0.048 0.031 0.045 0.070c-0.045 0.053-0.059 0.109-0.042 0.168s0.062 0.101 0.132 0.129c0.070 0.025 0.146 0.008 0.225-0.053 0.14-0.138 0.18-0.292 0.112-0.463-0.067-0.168-0.216-0.267-0.446-0.295-0.233-0.025-0.508 0.104-0.831 0.39-0.098 0.093-0.185 0.197-0.267 0.309-0.18 0.152-0.376 0.309-0.59 0.469-0.357 0.27-0.724 0.5-1.106 0.693s-0.735 0.303-1.061 0.331c-0.337 0.014-0.561-0.076-0.679-0.267s-0.126-0.421-0.028-0.688c0.303 0.017 0.576-0.070 0.82-0.258s0.359-0.382 0.345-0.584c-0.028-0.194-0.121-0.306-0.275-0.334-0.121-0.022-0.247-0.008-0.382 0.042-0.028 0-0.062 0.006-0.095 0.020-0.491 0.211-1.022 0.368-1.592 0.466-0.57 0.101-1.061 0.146-1.468 0.135-0.051-0.112-0.121-0.199-0.216-0.261 0.213-0.278 0.491-0.688 0.831-1.232s0.587-1.025 0.741-1.44c0.098-0.309 0.090-0.519-0.025-0.626s-0.289-0.070-0.519 0.112c-0.208 0.188-0.418 0.48-0.637 0.879-0.216 0.399-0.415 0.809-0.595 1.227-0.18 0.421-0.312 0.744-0.399 0.974-0.14 0.042-0.239 0.124-0.289 0.244-0.006 0.011-0.008 0.025-0.014 0.037-0.239 0.129-0.502 0.227-0.792 0.295-0.441 0.101-0.786 0.143-1.036 0.129s-0.452-0.059-0.604-0.132c-0.154-0.073-0.253-0.202-0.3-0.387-0.037-0.194-0.051-0.345-0.045-0.455 0.003-0.081-0.003-0.152-0.020-0.205s-0.070-0.093-0.163-0.115c-0.171-0.025-0.351 0.056-0.536 0.244s-0.362 0.396-0.525 0.62l0.112-0.379c0.020-0.065 0.008-0.124-0.034-0.174s-0.104-0.079-0.18-0.081c-0.079-0.003-0.143 0.031-0.194 0.104-0.053 0.087-0.093 0.152-0.118 0.197-0.008 0.014-0.014 0.025-0.020 0.039-0.031 0.011-0.062 0.028-0.093 0.056-0.267 0.247-0.578 0.505-0.932 0.772-0.357 0.27-0.724 0.5-1.106 0.693s-0.736 0.303-1.061 0.331c-0.337 0.014-0.561-0.076-0.679-0.267s-0.126-0.421-0.028-0.688c0.303 0.017 0.575-0.070 0.82-0.258s0.359-0.382 0.345-0.584c-0.031-0.194-0.121-0.306-0.275-0.334s-0.317 0.003-0.491 0.093c-0.174 0.090-0.331 0.205-0.469 0.351-0.343 0.382-0.5 0.775-0.469 1.179s0.244 0.693 0.643 0.865c0.399 0.129 0.853 0.095 1.367-0.101s1.011-0.463 1.488-0.8c0.258-0.182 0.488-0.359 0.693-0.533-0.006 0.017-0.014 0.037-0.020 0.056-0.098 0.286-0.292 0.831-0.578 1.631-0.020 0.073-0.006 0.135 0.039 0.191 0.048 0.053 0.112 0.084 0.194 0.090 0.084 0.006 0.152-0.034 0.205-0.115 0.185-0.345 0.455-0.811 0.809-1.398s0.62-0.974 0.797-1.159c0.006 0.213 0.070 0.418 0.194 0.612 0.121 0.194 0.334 0.326 0.637 0.396 0.438 0.095 0.884 0.104 1.342 0.028 0.438-0.073 0.806-0.185 1.103-0.331-0.421 1.143-0.78 2.209-1.078 3.2-0.312 1.041-0.477 1.704-0.494 1.996 0.011 0.194 0.090 0.278 0.236 0.255 0.149-0.025 0.281-0.118 0.396-0.278 0.216-0.323 0.497-0.817 0.837-1.479s0.646-1.342 0.912-2.032c0.267-0.691 0.396-1.224 0.39-1.595 0.43 0 0.921-0.053 1.477-0.16 0.258-0.051 0.514-0.112 0.761-0.188-0.174 0.281-0.25 0.567-0.227 0.862 0.031 0.404 0.244 0.693 0.643 0.865 0.399 0.129 0.853 0.095 1.367-0.101s1.011-0.463 1.488-0.8c0.048-0.034 0.093-0.065 0.138-0.098-0.011 0.062-0.017 0.124-0.020 0.188-0.014 0.244 0.053 0.455 0.202 0.629 0.211 0.211 0.455 0.295 0.736 0.253s0.539-0.129 0.78-0.261c0.368-0.194 0.761-0.432 1.179-0.719 0.351-0.239 0.654-0.446 0.91-0.623-0.098 0.371-0.197 0.752-0.295 1.14-0.404 1.583-0.696 2.734-0.873 3.459-0.017 0.081 0.008 0.149 0.070 0.202 0.065 0.053 0.14 0.073 0.227 0.056s0.146-0.067 0.174-0.16c0.149-0.606 0.432-1.729 0.851-3.366s0.817-3.141 1.199-4.511c1.033-0.014 2.055 0.008 3.071 0.070zM16.257 10.103c0.008 0.028-0.188 0.396-0.59 1.1 0.385-0.764 0.581-1.131 0.59-1.1zM6.465 12.7c0.112-0.090 0.208-0.146 0.286-0.174-0.014 0.025-0.025 0.051-0.039 0.073-0.039 0.056-0.138 0.132-0.298 0.227-0.135 0.076-0.213 0.115-0.233 0.118 0.042-0.042 0.135-0.124 0.284-0.244zM14.8 14.601c-0.225 0.604-0.488 1.21-0.792 1.819s-0.531 1.070-0.688 1.378c0.197-0.592 0.438-1.325 0.719-2.201 0.281-0.873 0.559-1.668 0.828-2.383 0.062 0.014 0.138 0.022 0.222 0.028 0.031 0.303-0.065 0.755-0.289 1.359zM18.837 12.602c-0.039 0.056-0.138 0.132-0.298 0.227-0.135 0.076-0.213 0.115-0.233 0.118 0.039-0.045 0.135-0.129 0.281-0.247 0.112-0.090 0.208-0.146 0.286-0.174-0.011 0.028-0.022 0.053-0.037 0.076z"></path>
<path fill="#fff" d="M27.983 11.572c-0.048-0.031-0.104-0.039-0.171-0.022-0.028 0.006-0.053 0.014-0.070 0.020-0.006 0.003-0.017 0.006-0.028 0.011-0.011 0.003-0.037 0.006-0.070 0.011-0.112 0.003-0.182 0.053-0.213 0.154-0.006 0.039 0 0.079 0.022 0.118s0.059 0.070 0.115 0.090c0.059 0.022 0.126 0.031 0.202 0.028 0.076-0.006 0.146-0.025 0.208-0.062 0.093-0.056 0.126-0.132 0.098-0.227-0.014-0.051-0.045-0.087-0.093-0.121z"></path>
<path fill="#fff" d="M44.79 12.282c-0.051-0.062-0.129-0.087-0.236-0.073h0.011c-0.755 0.152-1.446 0.342-2.072 0.57-0.626 0.23-1.145 0.46-1.558 0.693-0.031-0.109-0.090-0.216-0.18-0.32s-0.185-0.194-0.289-0.27c-0.093-0.073-0.168-0.143-0.233-0.213 0.020-0.031 0.056-0.065 0.112-0.101 0.053-0.037 0.095-0.065 0.121-0.076 0.020-0.003 0.059-0.003 0.112 0 0.056 0.003 0.129-0.003 0.219-0.017s0.174-0.051 0.247-0.104c0.073-0.053 0.118-0.135 0.132-0.239 0.003-0.053-0.020-0.104-0.067-0.152-0.048-0.051-0.107-0.070-0.18-0.065-0.199 0.020-0.404 0.070-0.609 0.154s-0.373 0.208-0.505 0.373c-0.090 0.14-0.101 0.27-0.042 0.382-0.017 0.008-0.031 0.017-0.048 0.028-0.418 0.334-0.789 0.609-1.109 0.828s-0.637 0.376-0.946 0.472c-0.522 0.138-0.862-0.042-1.016-0.545-0.039-0.146-0.070-0.295-0.093-0.449-0.022-0.152-0.053-0.3-0.093-0.444-0.034-0.115-0.095-0.216-0.191-0.3-0.093-0.084-0.222-0.101-0.382-0.051-0.138 0.062-0.303 0.191-0.497 0.382-0.194 0.194-0.421 0.444-0.685 0.752 0.135-0.387 0.281-0.772 0.435-1.145 0.025-0.070 0.017-0.129-0.028-0.177-0.045-0.051-0.107-0.070-0.185-0.067-0.079 0.006-0.14 0.045-0.188 0.115-0.031 0.042-0.067 0.112-0.109 0.205-0.415 0.261-0.82 0.441-1.216 0.542-0.41 0.104-0.803 0.152-1.176 0.14s-0.646-0.098-0.817-0.261c0-0.197-0.031-0.396-0.093-0.592-0.022-0.062-0.067-0.101-0.135-0.112-0.067-0.014-0.126-0.003-0.177 0.028-0.051 0.034-0.090 0.048-0.118 0.039-0.028-0.006-0.154 0.048-0.379 0.166-0.087 0.045-0.171 0.107-0.255 0.185-0.031 0.008-0.062 0.025-0.093 0.048-0.233 0.202-0.525 0.415-0.876 0.64s-0.654 0.418-0.912 0.581c-0.031 0.017-0.067 0.037-0.109 0.059-0.112 0.070-0.241 0.14-0.387 0.211s-0.27 0.118-0.365 0.138c-0.098 0.022-0.157 0.008-0.18-0.037-0.053-0.154-0.045-0.376 0.025-0.668 0.070-0.289 0.157-0.536 0.261-0.741 0.090-0.073 0.132-0.168 0.129-0.292-0.006-0.079-0.051-0.146-0.135-0.197-0.084-0.053-0.171-0.039-0.264 0.039-0.079 0.090-0.163 0.239-0.255 0.449-0.090 0.211-0.163 0.444-0.216 0.693-0.053 0.253-0.067 0.486-0.039 0.702s0.132 0.371 0.314 0.463c0.146 0.065 0.309 0.070 0.494 0.011s0.415-0.163 0.696-0.317c0.309-0.168 0.679-0.387 1.106-0.66 0.062-0.039 0.121-0.079 0.18-0.118-0.109 0.295-0.16 0.564-0.149 0.806 0.017 0.373 0.188 0.564 0.505 0.578 0.25-0.020 0.517-0.188 0.803-0.502 0.284-0.314 0.474-0.677 0.57-1.084 0.345 0.157 0.808 0.205 1.384 0.14 0.578-0.065 1.086-0.208 1.524-0.427 0.039-0.020 0.076-0.039 0.112-0.056-0.121 0.306-0.236 0.615-0.345 0.926-0.090 0.261-0.182 0.517-0.281 0.769-0.020 0.070-0.011 0.132 0.028 0.191s0.098 0.093 0.177 0.101c0.081 0.011 0.154-0.025 0.219-0.104 0.098-0.135 0.272-0.359 0.519-0.674s0.5-0.62 0.761-0.912c0.261-0.295 0.432-0.466 0.519-0.517 0.025 0.048 0.056 0.188 0.090 0.424 0.034 0.23 0.084 0.446 0.157 0.646 0.109 0.284 0.284 0.491 0.522 0.623 0.241 0.132 0.531 0.166 0.873 0.098 0.399-0.095 0.817-0.289 1.26-0.578 0.441-0.289 0.814-0.575 1.12-0.853 0.014-0.014 0.025-0.025 0.036-0.039 0.020 0.017 0.042 0.034 0.065 0.051 0.109 0.079 0.197 0.163 0.267 0.25s0.109 0.188 0.118 0.303c-0.157 0.095-0.348 0.233-0.573 0.413s-0.404 0.371-0.539 0.573c-0.135 0.202-0.149 0.393-0.045 0.57 0.126 0.154 0.312 0.174 0.559 0.062s0.474-0.298 0.685-0.547c0.208-0.253 0.337-0.528 0.387-0.828 0.536-0.32 1.131-0.592 1.783-0.82s1.294-0.401 1.926-0.525c0.101-0.025 0.16-0.076 0.171-0.149 0.003-0.067-0.017-0.135-0.067-0.197zM30.742 13.742c-0.112 0.222-0.244 0.407-0.393 0.55s-0.25 0.219-0.303 0.225c-0.053 0.006-0.079-0.076-0.076-0.239 0.020-0.345 0.124-0.682 0.309-1.008 0.079-0.135 0.154-0.247 0.233-0.34 0.006-0.006 0.011-0.011 0.014-0.017 0.107-0.121 0.213-0.205 0.323-0.25-0.056 0.081-0.067 0.157-0.034 0.222 0.028 0.070 0.073 0.121 0.129 0.154-0.022 0.244-0.090 0.48-0.202 0.702zM40.043 14.71c-0.138 0.129-0.25 0.213-0.343 0.25 0.101-0.090 0.3-0.267 0.592-0.533-0.031 0.059-0.112 0.152-0.25 0.284z"></path>
<path fill="#fff" d="M11.908 21.602c0.208 0 0.587 0.020 0.91 0.020 0.455 0 0.688-0.011 0.839-0.020 0.039 0.020 0.045 0.222 0 0.247-0.138 0.031-0.264 0.056-0.359 0.081-0.126 0.037-0.14 0.121-0.121 0.222 0.101 0.491 0.418 1.648 0.626 2.4 0.006 0.011 0.020 0.006 0.031 0 0.323-0.859 0.713-1.99 0.935-2.715 0.121 0.011 0.314 0.011 0.41 0 0.197 0.637 0.758 2.249 0.96 2.79 0.006 0.006 0.031 0.006 0.039-0.006 0.182-0.556 0.561-1.794 0.682-2.294 0.051-0.227 0.051-0.354-0.152-0.41-0.107-0.025-0.213-0.045-0.393-0.070-0.051-0.031-0.031-0.227 0.006-0.247 0.157 0 0.5 0.020 0.778 0.020 0.469 0 0.663-0.020 0.794-0.020 0.031 0.031 0.031 0.222 0 0.247-0.107 0.025-0.171 0.039-0.258 0.065-0.157 0.051-0.258 0.121-0.354 0.373-0.289 0.764-0.814 2.4-1.1 3.285-0.076-0.006-0.309-0.006-0.39 0.006-0.14-0.511-0.783-2.381-0.96-2.824-0.006 0-0.020 0.006-0.025 0.011-0.334 0.904-0.744 2.052-0.991 2.804-0.081-0.006-0.298-0.006-0.385 0.006-0.191-0.803-0.682-2.647-0.884-3.279-0.076-0.227-0.132-0.323-0.298-0.373-0.107-0.031-0.182-0.045-0.368-0.076-0.022-0.028-0.017-0.219 0.028-0.244z"></path>
<path fill="#fff" d="M17.983 21.602c0.171 0 0.587 0.020 0.949 0.020h1.274c0.247 0 0.581-0.006 0.733-0.020 0.011 0.006 0.031 0.025 0.031 0.039-0.045 0.177-0.101 0.632-0.107 0.904-0.037 0.045-0.253 0.037-0.284 0.011-0.006-0.177-0.037-0.264-0.070-0.373-0.051-0.157-0.115-0.216-0.292-0.227-0.095-0.006-0.924-0.006-0.98 0-0.051 0.011-0.090 0.101-0.090 0.14 0 0.435-0.006 0.808-0.006 1.232 0 0.011 0.020 0.045 0.037 0.045 0.328 0 0.696 0.006 0.949-0.020 0.095-0.014 0.146-0.070 0.177-0.163 0.025-0.076 0.051-0.177 0.070-0.278 0.062-0.025 0.258-0.011 0.289 0.025-0.011 0.146-0.045 0.385-0.045 0.626 0 0.216 0.006 0.424 0.011 0.62-0.039 0.031-0.258 0.037-0.298 0-0.031-0.152-0.031-0.208-0.062-0.292-0.025-0.095-0.090-0.138-0.177-0.152-0.208-0.025-0.626-0.020-0.915-0.020-0.020 0-0.037 0.025-0.037 0.051 0 0.41 0 0.904 0.011 1.157 0 0.101 0.062 0.222 0.146 0.253 0.126 0.039 0.929 0.031 1.067 0.031 0.171 0 0.264-0.051 0.399-0.239 0.101-0.132 0.222-0.393 0.289-0.545 0.051-0.006 0.233 0.051 0.267 0.095-0.031 0.208-0.166 0.682-0.278 0.91-0.031 0.076-0.081 0.126-0.404 0.126-0.671 0-1.283-0.025-1.743-0.025-0.424 0-0.853 0.020-1.117 0.020-0.031-0.025-0.039-0.213-0.006-0.253 0.222-0.025 0.424-0.045 0.545-0.076 0.152-0.037 0.197-0.121 0.208-0.323 0.011-0.107 0.006-0.772 0.006-1.471 0-0.556 0-1.092-0.006-1.207-0.011-0.208-0.039-0.264-0.182-0.309-0.090-0.025-0.208-0.045-0.379-0.070-0.031-0.042-0.017-0.213 0.020-0.244z"></path>
<path fill="#fff" d="M21.711 21.602c0.107 0 0.606 0.020 0.794 0.020 0.354 0 0.601-0.020 1.263-0.020 0.556 0 1.022 0.152 1.359 0.444 0.404 0.354 0.62 0.845 0.62 1.446 0 0.853-0.385 1.345-0.769 1.623-0.385 0.292-0.884 0.455-1.597 0.455-0.379 0-1.030-0.011-1.572-0.020h-0.194c-0.025-0.051-0.031-0.222 0-0.253 0.233-0.014 0.359-0.039 0.474-0.065 0.121-0.031 0.197-0.095 0.208-0.303 0.020-0.393 0.011-0.859 0.011-1.39 0-0.379 0.006-1.117-0.006-1.353-0.020-0.197-0.101-0.247-0.264-0.284-0.081-0.020-0.197-0.039-0.354-0.056-0.014-0.037-0.006-0.205 0.025-0.244zM23.062 25.114c0.135 0.107 0.399 0.152 0.632 0.152 0.303 0 0.601-0.056 0.89-0.323 0.298-0.272 0.5-0.688 0.5-1.35 0-0.637-0.239-1.157-0.733-1.46-0.278-0.177-0.637-0.247-1.050-0.247-0.121 0-0.239 0.006-0.309 0.037-0.020 0.011-0.056 0.065-0.056 0.087-0.011 0.115-0.011 0.98-0.011 1.491 0 0.525 0 1.258 0.011 1.345 0.008 0.081 0.045 0.213 0.126 0.27z"></path>
<path fill="#fff" d="M26.327 21.602c0.107 0 0.606 0.020 0.794 0.020 0.354 0 0.601-0.020 1.263-0.020 0.556 0 1.025 0.152 1.359 0.444 0.404 0.354 0.62 0.845 0.62 1.446 0 0.853-0.385 1.345-0.772 1.623-0.385 0.292-0.884 0.455-1.597 0.455-0.379 0-1.030-0.011-1.572-0.020h-0.191c-0.025-0.051-0.031-0.222 0-0.253 0.233-0.014 0.359-0.039 0.474-0.065 0.121-0.031 0.197-0.095 0.208-0.303 0.020-0.393 0.011-0.859 0.011-1.39 0-0.379 0.006-1.117-0.006-1.353-0.020-0.197-0.101-0.247-0.264-0.284-0.081-0.020-0.197-0.039-0.354-0.056-0.011-0.037-0.006-0.205 0.025-0.244zM27.68 25.114c0.132 0.107 0.399 0.152 0.632 0.152 0.303 0 0.601-0.056 0.89-0.323 0.298-0.272 0.5-0.688 0.5-1.35 0-0.637-0.241-1.157-0.733-1.46-0.278-0.177-0.637-0.247-1.050-0.247-0.121 0-0.239 0.006-0.309 0.037-0.020 0.011-0.056 0.065-0.056 0.087-0.011 0.115-0.011 0.98-0.011 1.491 0 0.525 0 1.258 0.011 1.345 0.006 0.081 0.045 0.213 0.126 0.27z"></path>
<path fill="#fff" d="M30.95 21.602c0.126 0 0.536 0.020 0.87 0.020 0.34 0 0.733-0.020 0.904-0.020 0.025 0.039 0.031 0.202 0 0.247-0.171 0.020-0.284 0.031-0.373 0.056-0.152 0.039-0.177 0.115-0.191 0.303-0.020 0.272-0.011 0.727-0.011 1.283 0 0.587 0.006 1.182 0.020 1.404 0.006 0.197 0.036 0.284 0.239 0.334 0.095 0.020 0.239 0.045 0.424 0.070 0.031 0.025 0.014 0.227-0.020 0.253-0.138 0-0.595-0.020-0.929-0.020-0.373 0-0.839 0.020-0.954 0.020-0.037-0.020-0.037-0.227-0.006-0.253 0.171-0.020 0.258-0.031 0.354-0.051 0.202-0.051 0.227-0.14 0.247-0.267 0.025-0.182 0.020-0.556 0.020-1.592 0-0.531 0.006-0.89-0.011-1.187-0.011-0.171-0.031-0.239-0.166-0.278-0.112-0.031-0.233-0.051-0.424-0.076-0.028-0.031-0.017-0.216 0.008-0.247z"></path>
<path fill="#fff" d="M33.159 21.602c0.197 0 0.525 0.020 0.929 0.020h0.289c0.025 0.081 0.051 0.132 0.213 0.34 0.612 0.783 1.805 2.229 2.142 2.628 0.014 0.006 0.025 0 0.025-0.011 0-0.89 0.006-1.825-0.020-2.31-0.011-0.197-0.051-0.278-0.253-0.328-0.126-0.031-0.278-0.065-0.46-0.087-0.031-0.031-0.031-0.216 0-0.247 0.157 0 0.46 0.020 0.929 0.020 0.233 0 0.651-0.020 0.738-0.020 0.036 0.031 0.031 0.208 0 0.247-0.121 0.025-0.227 0.051-0.298 0.076-0.177 0.056-0.216 0.157-0.233 0.34-0.039 0.491-0.031 0.924-0.051 2.411 0 0.298 0.006 0.671 0.014 0.884-0.070-0.014-0.435-0.006-0.5 0.006-0.359-0.505-1.92-2.476-2.381-3.052-0.006-0.011-0.031-0.006-0.031 0-0.006 0.671-0.011 2.002 0.011 2.369 0.011 0.202 0.081 0.298 0.267 0.343 0.095 0.031 0.233 0.045 0.41 0.070 0.031 0.045 0.020 0.216-0.011 0.253-0.177 0-0.466-0.020-0.853-0.020-0.455 0-0.721 0.020-0.859 0.020-0.031-0.020-0.025-0.222 0-0.253 0.152-0.020 0.284-0.037 0.385-0.070 0.146-0.051 0.222-0.14 0.233-0.328 0.031-0.359 0.045-1.283 0.062-2.622 0-0.107-0.031-0.253-0.197-0.323-0.121-0.039-0.264-0.081-0.505-0.107-0.034-0.031-0.028-0.216 0.003-0.247z"></path>
<path fill="#fff" d="M41.977 25.392c-0.247 0.090-0.865 0.253-1.429 0.253-1.541 0-2.324-0.794-2.324-2.086 0-0.859 0.429-1.496 1.137-1.814 0.354-0.163 0.764-0.239 1.252-0.239 0.556 0 0.89 0.107 1.319 0.146-0.051 0.292-0.121 0.814-0.121 1.081-0.020 0.037-0.253 0.056-0.284 0.025-0.056-0.474-0.126-0.677-0.309-0.783-0.188-0.112-0.429-0.182-0.859-0.182-0.954 0-1.401 0.702-1.401 1.673 0 1.072 0.567 1.895 1.718 1.895 0.177 0 0.309-0.025 0.393-0.087 0.070-0.045 0.107-0.182 0.112-0.247 0.020-0.197 0.011-0.359 0.011-0.581-0.006-0.182-0.045-0.272-0.222-0.334-0.112-0.031-0.284-0.045-0.511-0.081-0.045-0.025-0.020-0.233 0.011-0.253 0.166 0 0.486 0.020 0.96 0.020 0.449 0 0.663-0.011 0.778-0.020 0.025 0.025 0.020 0.239-0.006 0.258-0.065 0.011-0.152 0.025-0.213 0.045-0.126 0.037-0.157 0.121-0.166 0.278-0.006 0.177 0 0.587 0 0.677 0.006 0.081 0.025 0.121 0.182 0.197 0 0.014-0.011 0.14-0.031 0.16z"></path>
<path fill="#fff" d="M43.549 25.164c0.157 0.126 0.385 0.182 0.612 0.182 0.272 0 0.657-0.152 0.657-0.632 0-0.393-0.239-0.561-0.828-0.89-0.606-0.334-0.985-0.632-0.985-1.227 0-0.702 0.57-1.092 1.283-1.092 0.48 0 0.752 0.087 1.030 0.121-0.045 0.208-0.081 0.62-0.107 0.929-0.020 0.045-0.213 0.045-0.247 0.006-0.036-0.334-0.090-0.536-0.233-0.643-0.152-0.107-0.354-0.14-0.531-0.14-0.429 0-0.637 0.334-0.637 0.606 0 0.359 0.157 0.511 0.435 0.688 0.258 0.163 0.612 0.314 0.839 0.449 0.354 0.208 0.592 0.474 0.592 0.929 0 0.606-0.519 1.193-1.46 1.193-0.404 0-0.794-0.14-0.96-0.202-0.056-0.076-0.191-0.778-0.208-1.011 0.014-0.056 0.227-0.107 0.267-0.081 0.121 0.379 0.253 0.651 0.48 0.814z"></path>
<path fill="#fff" d="M12.478 29.791c0.182-0.432 0.581-1.468 0.671-1.735 0.034-0.095 0.070-0.202 0.081-0.267 0.022 0.003 0.079 0.003 0.154 0.003 0.098 0 0.143 0 0.166-0.003 0.020 0.081 0.045 0.16 0.073 0.244 0.081 0.23 0.539 1.434 0.702 1.802 0.132 0.292 0.166 0.317 0.477 0.359 0.025 0.017 0.008 0.143-0.008 0.166-0.107-0.003-0.306-0.011-0.539-0.011-0.247 0-0.517 0.011-0.598 0.011-0.017-0.020-0.020-0.143 0-0.166 0.090-0.011 0.177-0.025 0.239-0.045 0.051-0.020 0.059-0.073 0.051-0.104-0.053-0.174-0.16-0.452-0.227-0.615-0.008-0.020-0.034-0.028-0.042-0.028-0.073-0.003-0.264-0.003-0.415-0.003-0.264 0-0.289 0-0.334 0.003-0.020 0-0.051 0.028-0.051 0.037-0.087 0.236-0.194 0.503-0.194 0.584 0 0.079 0.017 0.107 0.135 0.135 0.053 0.011 0.143 0.025 0.219 0.034 0.017 0.020 0.008 0.143-0.011 0.166-0.081 0-0.298-0.011-0.573-0.011-0.267 0-0.404 0.011-0.483 0.011-0.017-0.020-0.017-0.143 0-0.166 0.306-0.042 0.365-0.067 0.508-0.401zM13.278 28.283c-0.070 0.219-0.219 0.598-0.298 0.845 0 0.011 0.003 0.025 0.017 0.028 0.045 0.003 0.205 0.003 0.326 0.003 0.104 0 0.219 0 0.272-0.003 0.011 0 0.025-0.020 0.020-0.042-0.079-0.213-0.244-0.671-0.314-0.837 0 0-0.014-0.003-0.022 0.006z"></path>
<path fill="#fff" d="M14.867 27.781c0.126 0 0.342 0.011 0.606 0.011h0.191c0.017 0.053 0.034 0.087 0.14 0.222 0.399 0.511 1.179 1.454 1.398 1.715 0.008 0.006 0.017 0 0.017-0.008 0-0.581 0.003-1.19-0.011-1.508-0.008-0.129-0.034-0.182-0.166-0.213-0.081-0.020-0.182-0.042-0.3-0.059-0.020-0.020-0.020-0.14 0-0.16 0.104 0 0.3 0.011 0.606 0.011 0.152 0 0.424-0.011 0.483-0.011 0.025 0.020 0.020 0.138 0 0.16-0.079 0.017-0.149 0.034-0.194 0.051-0.115 0.037-0.14 0.104-0.152 0.222-0.025 0.323-0.020 0.601-0.034 1.575 0 0.194 0.003 0.438 0.008 0.576-0.045-0.008-0.284-0.003-0.326 0.006-0.236-0.328-1.252-1.617-1.555-1.99-0.003-0.008-0.020-0.003-0.020 0-0.003 0.438-0.008 1.305 0.008 1.547 0.008 0.132 0.053 0.194 0.174 0.222 0.062 0.020 0.152 0.028 0.267 0.045 0.020 0.028 0.014 0.14-0.008 0.166-0.115 0-0.306-0.011-0.556-0.011-0.298 0-0.469 0.011-0.561 0.011-0.020-0.011-0.017-0.143 0-0.166 0.098-0.011 0.185-0.025 0.253-0.045 0.095-0.034 0.143-0.090 0.152-0.213 0.020-0.236 0.028-0.837 0.042-1.71 0-0.070-0.020-0.166-0.129-0.211-0.079-0.025-0.174-0.053-0.328-0.070-0.031-0.022-0.028-0.143-0.006-0.163z"></path>
<path fill="#fff" d="M18.082 27.781c0.070 0 0.396 0.011 0.519 0.011 0.23 0 0.393-0.011 0.825-0.011 0.362 0 0.668 0.098 0.887 0.289 0.264 0.23 0.404 0.553 0.404 0.943 0 0.556-0.253 0.879-0.503 1.058-0.253 0.191-0.578 0.298-1.044 0.298-0.247 0-0.671-0.008-1.027-0.011h-0.124c-0.017-0.034-0.020-0.143 0-0.166 0.152-0.008 0.236-0.025 0.309-0.042 0.079-0.020 0.126-0.062 0.135-0.199 0.011-0.255 0.008-0.561 0.008-0.907 0-0.247 0.003-0.73-0.003-0.881-0.011-0.129-0.067-0.16-0.174-0.185-0.053-0.011-0.129-0.025-0.23-0.037-0.008-0.025-0.003-0.138 0.017-0.16zM18.963 30.071c0.087 0.070 0.258 0.098 0.413 0.098 0.199 0 0.393-0.037 0.581-0.211 0.194-0.177 0.326-0.449 0.326-0.881 0-0.415-0.157-0.755-0.477-0.952-0.182-0.115-0.415-0.16-0.685-0.16-0.079 0-0.157 0.006-0.202 0.025-0.011 0.008-0.037 0.042-0.037 0.059-0.008 0.073-0.008 0.64-0.008 0.974 0 0.343 0 0.82 0.008 0.879 0.003 0.045 0.028 0.132 0.081 0.168z"></path>
<path fill="#fff" d="M22.458 30.052c-0.255-0.275-0.362-0.615-0.362-1.005 0-0.314 0.095-0.581 0.281-0.817 0.227-0.3 0.677-0.511 1.114-0.511 0.853 0 1.286 0.618 1.286 1.286 0 0.385-0.087 0.643-0.261 0.879-0.272 0.354-0.693 0.536-1.103 0.536-0.421-0.003-0.73-0.135-0.954-0.368zM23.991 30.060c0.253-0.194 0.337-0.522 0.337-0.898 0-0.463-0.152-0.873-0.469-1.089-0.143-0.095-0.314-0.149-0.522-0.149-0.132 0-0.247 0.034-0.345 0.087-0.292 0.16-0.438 0.522-0.438 0.94 0 0.449 0.168 0.898 0.522 1.117 0.143 0.087 0.292 0.124 0.491 0.124 0.166 0 0.323-0.048 0.424-0.132z"></path>
<path fill="#fff" d="M27.166 27.994c-0.129-0.059-0.314-0.081-0.503-0.081-0.587 0-0.896 0.438-0.896 1.109 0 0.561 0.317 1.171 1.072 1.171 0.227 0 0.368-0.073 0.43-0.115 0.095-0.070 0.213-0.236 0.334-0.43 0.034-0.006 0.124 0.051 0.135 0.087-0.034 0.157-0.222 0.5-0.32 0.57-0.115 0.045-0.407 0.115-0.66 0.115-0.943 0-1.454-0.514-1.454-1.362 0-0.449 0.211-0.901 0.663-1.151 0.222-0.121 0.491-0.191 0.834-0.191 0.393 0 0.671 0.073 0.862 0.087-0.025 0.166-0.059 0.474-0.062 0.668-0.020 0.025-0.166 0.042-0.168 0.011-0.048-0.331-0.098-0.407-0.267-0.488z"></path>
<path fill="#fff" d="M30.015 27.994c-0.129-0.059-0.314-0.081-0.503-0.081-0.587 0-0.896 0.438-0.896 1.109 0 0.561 0.317 1.171 1.072 1.171 0.227 0 0.368-0.073 0.43-0.115 0.095-0.070 0.213-0.236 0.334-0.43 0.034-0.006 0.124 0.051 0.135 0.087-0.034 0.157-0.222 0.5-0.32 0.57-0.115 0.045-0.407 0.115-0.66 0.115-0.943 0-1.454-0.514-1.454-1.362 0-0.449 0.211-0.901 0.663-1.151 0.222-0.121 0.491-0.191 0.834-0.191 0.393 0 0.671 0.073 0.862 0.087-0.025 0.166-0.059 0.474-0.062 0.668-0.020 0.025-0.166 0.042-0.168 0.011-0.048-0.331-0.098-0.407-0.267-0.488z"></path>
<path fill="#fff" d="M31.242 29.791c0.182-0.432 0.581-1.468 0.671-1.735 0.034-0.095 0.070-0.202 0.081-0.267 0.020 0.003 0.073 0.003 0.152 0.003 0.098 0 0.143 0 0.166-0.003 0.020 0.081 0.045 0.16 0.073 0.244 0.081 0.23 0.539 1.434 0.702 1.802 0.132 0.292 0.166 0.317 0.477 0.359 0.025 0.017 0.008 0.143-0.008 0.166-0.107-0.003-0.306-0.011-0.539-0.011-0.247 0-0.517 0.011-0.598 0.011-0.017-0.020-0.020-0.143 0-0.166 0.090-0.011 0.177-0.025 0.239-0.045 0.051-0.020 0.059-0.073 0.051-0.104-0.053-0.174-0.16-0.452-0.227-0.615-0.008-0.020-0.034-0.028-0.042-0.028-0.073-0.003-0.264-0.003-0.415-0.003-0.264 0-0.289 0-0.334 0.003-0.020 0-0.051 0.028-0.051 0.037-0.087 0.236-0.194 0.503-0.194 0.584 0 0.079 0.017 0.107 0.135 0.135 0.053 0.011 0.143 0.025 0.219 0.034 0.017 0.020 0.008 0.143-0.011 0.166-0.081 0-0.298-0.011-0.573-0.011-0.267 0-0.404 0.011-0.483 0.011-0.017-0.020-0.017-0.143 0-0.166 0.309-0.042 0.368-0.067 0.511-0.401zM32.042 28.283c-0.070 0.219-0.219 0.598-0.298 0.845 0 0.011 0.003 0.025 0.017 0.028 0.045 0.003 0.205 0.003 0.326 0.003 0.104 0 0.219 0 0.272-0.003 0.011 0 0.025-0.020 0.020-0.042-0.079-0.213-0.244-0.671-0.314-0.837-0.003 0-0.014-0.003-0.022 0.006z"></path>
<path fill="#fff" d="M34.308 30.105c0.104 0.081 0.253 0.121 0.399 0.121 0.177 0 0.429-0.098 0.429-0.413 0-0.255-0.157-0.368-0.539-0.581-0.396-0.219-0.643-0.413-0.643-0.8 0-0.458 0.371-0.713 0.837-0.713 0.314 0 0.491 0.059 0.671 0.079-0.028 0.135-0.053 0.404-0.070 0.606-0.011 0.028-0.14 0.028-0.16 0.006-0.025-0.219-0.059-0.351-0.152-0.421-0.098-0.070-0.23-0.090-0.345-0.090-0.281 0-0.415 0.219-0.415 0.396 0 0.236 0.104 0.334 0.284 0.449 0.168 0.107 0.399 0.205 0.547 0.292 0.23 0.135 0.387 0.309 0.387 0.606 0 0.396-0.337 0.778-0.952 0.778-0.264 0-0.519-0.090-0.626-0.132-0.036-0.051-0.124-0.508-0.135-0.66 0.008-0.037 0.149-0.070 0.174-0.053 0.073 0.247 0.16 0.424 0.309 0.531z"></path>
<path fill="#fff" d="M35.885 27.781c0.081 0 0.351 0.011 0.57 0.011 0.222 0 0.477-0.011 0.59-0.011 0.017 0.025 0.020 0.132 0 0.16-0.112 0.011-0.185 0.020-0.244 0.037-0.098 0.025-0.115 0.073-0.124 0.199-0.011 0.177-0.008 0.474-0.008 0.837 0 0.385 0.003 0.772 0.011 0.915 0.003 0.129 0.025 0.185 0.157 0.219 0.062 0.011 0.157 0.028 0.275 0.045 0.020 0.017 0.008 0.149-0.011 0.166-0.090 0-0.387-0.011-0.606-0.011-0.244 0-0.547 0.011-0.623 0.011-0.025-0.011-0.025-0.149-0.003-0.166 0.112-0.011 0.168-0.020 0.23-0.034 0.132-0.034 0.149-0.090 0.16-0.174 0.017-0.121 0.011-0.362 0.011-1.039 0-0.345 0.003-0.581-0.008-0.775-0.008-0.112-0.020-0.157-0.107-0.182-0.073-0.020-0.152-0.034-0.275-0.051-0.020-0.017-0.011-0.138 0.006-0.157z"></path>
<path fill="#fff" d="M37.819 30.052c-0.255-0.275-0.362-0.615-0.362-1.005 0-0.314 0.095-0.581 0.281-0.817 0.227-0.3 0.677-0.511 1.114-0.511 0.853 0 1.286 0.618 1.286 1.286 0 0.385-0.087 0.643-0.261 0.879-0.272 0.354-0.693 0.536-1.103 0.536-0.424-0.003-0.733-0.135-0.954-0.368zM39.352 30.060c0.253-0.194 0.337-0.522 0.337-0.898 0-0.463-0.152-0.873-0.469-1.089-0.143-0.095-0.314-0.149-0.522-0.149-0.132 0-0.247 0.034-0.345 0.087-0.292 0.16-0.438 0.522-0.438 0.94 0 0.449 0.168 0.898 0.525 1.117 0.143 0.087 0.292 0.124 0.491 0.124 0.16 0 0.317-0.048 0.421-0.132z"></path>
<path fill="#fff" d="M40.469 27.781c0.126 0 0.343 0.011 0.606 0.011h0.191c0.017 0.053 0.034 0.087 0.14 0.222 0.399 0.511 1.179 1.454 1.398 1.715 0.008 0.006 0.017 0 0.017-0.008 0-0.581 0.003-1.19-0.011-1.508-0.008-0.129-0.034-0.182-0.166-0.213-0.081-0.020-0.182-0.042-0.3-0.059-0.020-0.020-0.020-0.14 0-0.16 0.104 0 0.3 0.011 0.606 0.011 0.152 0 0.424-0.011 0.483-0.011 0.025 0.020 0.020 0.138 0 0.16-0.079 0.017-0.149 0.034-0.194 0.051-0.115 0.037-0.14 0.104-0.152 0.222-0.025 0.323-0.020 0.601-0.034 1.575 0 0.194 0.003 0.438 0.008 0.576-0.045-0.008-0.284-0.003-0.326 0.006-0.236-0.328-1.252-1.617-1.555-1.99-0.003-0.008-0.020-0.003-0.020 0-0.003 0.438-0.008 1.305 0.008 1.547 0.008 0.132 0.053 0.194 0.174 0.222 0.062 0.020 0.152 0.028 0.27 0.045 0.020 0.028 0.011 0.14-0.008 0.166-0.115 0-0.306-0.011-0.556-0.011-0.298 0-0.469 0.011-0.561 0.011-0.020-0.011-0.017-0.143 0-0.166 0.098-0.011 0.185-0.025 0.253-0.045 0.095-0.034 0.143-0.090 0.152-0.213 0.020-0.236 0.028-0.837 0.042-1.71 0-0.070-0.020-0.166-0.129-0.211-0.079-0.025-0.174-0.053-0.328-0.070-0.034-0.022-0.028-0.143-0.008-0.163z"></path>
<path fill="#fff" d="M44.209 30.105c0.104 0.081 0.253 0.121 0.399 0.121 0.177 0 0.429-0.098 0.429-0.413 0-0.255-0.157-0.368-0.539-0.581-0.396-0.219-0.643-0.413-0.643-0.8 0-0.458 0.371-0.713 0.837-0.713 0.314 0 0.491 0.059 0.671 0.079-0.028 0.135-0.053 0.404-0.070 0.606-0.011 0.028-0.14 0.028-0.16 0.006-0.025-0.219-0.056-0.351-0.152-0.421-0.098-0.070-0.23-0.090-0.345-0.090-0.281 0-0.415 0.219-0.415 0.396 0 0.236 0.104 0.334 0.284 0.449 0.168 0.107 0.399 0.205 0.547 0.292 0.23 0.135 0.387 0.309 0.387 0.606 0 0.396-0.337 0.778-0.952 0.778-0.264 0-0.519-0.090-0.626-0.132-0.036-0.051-0.124-0.508-0.135-0.66 0.008-0.037 0.149-0.070 0.174-0.053 0.073 0.247 0.16 0.424 0.309 0.531z"></path>
</svg>
