<!-- Generated by IcoMoon.io -->
<svg version="1.1" xmlns="http://www.w3.org/2000/svg" width="48" height="32" viewBox="0 0 48 32">
<title>jsperf</title>
<path fill="#b27a75" d="M6.378 1.8c0.838 0 1.98 0.090 4.618 0.090 1.83 0 2.968-0.090 3.87-0.090 0.15 0.12 0.15 1.049-0.030 1.169-0.691 0.12-1.229 0.24-1.619 0.33-0.511 0.15-0.691 0.421-0.718 1.139-0.060 1.289-0.060 10.524-0.15 13.225-0.12 2.367-0.391 4.047-1.259 5.576-1.589 2.818-4.137 4.347-6.147 4.347-1.139 0-2.19-0.451-2.488-1.049-0.030-0.090-0.12-0.421-0.12-0.481 0.090-0.571 0.511-1.83 0.721-2.277 0.898 0.601 2.608 1.349 3.569 1.349 0.721 0 1.379-0.18 1.89-0.808 0.808-1.049 0.928-2.040 0.958-4.648 0.030-3.84 0.030-13.255-0.060-14.755-0.060-0.781-0.15-1.319-0.988-1.559-0.571-0.15-1.109-0.24-2.1-0.391-0.156-0.18-0.096-1.049 0.054-1.169z"></path>
<path fill="#b27a75" d="M18.432 2.22c-0.090-0.060-0.27-0.391-0.18-0.571 0.3-0.541 1.499-1.649 2.070-1.649 1.169 0 1.95 1.289 1.95 2.638 0 2.638-2.758 4.227-4.257 4.588-0.15-0.030-0.421-0.841-0.361-0.928 1.679-0.691 2.398-1.77 2.398-2.668 0-0.661-0.688-1.142-1.619-1.409z"></path>
<path fill="#b27a75" d="M27.848 18.711c0.748 0.601 1.83 0.868 2.908 0.868 1.289 0 3.119-0.721 3.119-2.998 0-1.86-1.139-2.668-3.927-4.227-2.878-1.589-4.678-2.998-4.678-5.817 0-3.329 2.698-5.189 6.087-5.189 2.28 0 3.569 0.421 4.888 0.571-0.21 0.988-0.391 2.938-0.511 4.407-0.090 0.21-1.019 0.21-1.169 0.030-0.18-1.589-0.421-2.548-1.109-3.058-0.721-0.511-1.679-0.661-2.518-0.661-2.040 0-3.028 1.589-3.028 2.878 0 1.71 0.751 2.428 2.070 3.269 1.229 0.778 2.908 1.499 3.99 2.13 1.679 0.988 2.818 2.25 2.818 4.407 0 2.878-2.458 5.666-6.928 5.666-1.92 0-3.78-0.661-4.558-0.958-0.27-0.361-0.898-3.689-0.988-4.798 0.060-0.27 1.079-0.511 1.259-0.391 0.565 1.803 1.196 3.092 2.274 3.87z"></path>
<path fill="#1d1d1b" d="M5.88 11.528c0.511-0.604 0.853-1.241 1.027-1.911s0.090-1.316-0.255-1.938c-0.261-0.424-0.598-0.715-1.006-0.874-0.412-0.159-0.844-0.216-1.298-0.165s-0.886 0.171-1.298 0.364c-0.412 0.192-0.754 0.424-1.028 0.694-0.276 0.279-0.445 0.544-0.508 0.796s-0.048 0.466 0.051 0.643c0.096 0.177 0.258 0.279 0.484 0.312 0.126 0.009 0.219-0.024 0.276-0.099 0.057-0.078 0.075-0.156 0.057-0.24-0.018-0.081-0.087-0.135-0.207-0.156-0.021 0-0.042-0.003-0.057-0.006-0.027 0-0.051-0.003-0.069-0.009s-0.030-0.021-0.036-0.045c-0.033-0.093-0.027-0.207 0.018-0.352s0.141-0.297 0.294-0.469c0.318-0.33 0.721-0.589 1.214-0.772s0.976-0.243 1.457-0.183 0.868 0.291 1.163 0.691c0.327 0.511 0.424 1.058 0.288 1.64s-0.421 1.145-0.856 1.679c-0.436 0.538-0.934 0.994-1.493 1.373-0.343 0.231-0.706 0.427-1.094 0.586s-0.745 0.246-1.073 0.264c0.273-0.829 0.568-1.691 0.883-2.59 0.312-0.898 0.583-1.661 0.811-2.289s0.345-0.961 0.358-1.006c0.012-0.045-0.009-0.090-0.054-0.141-0.048-0.051-0.114-0.075-0.198-0.072s-0.156 0.039-0.216 0.105c-0.024 0.027-0.048 0.057-0.069 0.084-0.078 0.081-0.138 0.162-0.18 0.24s-0.027 0.144 0.042 0.192c-0.084 0.222-0.318 0.871-0.7 1.95s-0.784 2.247-1.202 3.509c-0.054-0.009-0.099-0.018-0.144-0.024-0.099-0.018-0.177 0-0.24 0.054s-0.096 0.114-0.099 0.183c-0.006 0.066 0.030 0.126 0.102 0.18 0.045 0.033 0.087 0.060 0.126 0.084s0.063 0.042 0.075 0.048c-0.367 1.118-0.772 2.413-1.217 3.885-0.021 0.087 0 0.159 0.063 0.216s0.141 0.075 0.237 0.060c0.096-0.015 0.159-0.072 0.195-0.171 0.409-1.361 0.829-2.704 1.265-4.029 0.382-0.003 0.775-0.078 1.187-0.222s0.796-0.331 1.154-0.556c0.67-0.406 1.259-0.913 1.77-1.514z"></path>
<path fill="#1d1d1b" d="M30.702 10.143c0.12 0 0.195-0.036 0.231-0.111 0.033-0.075 0.033-0.15 0-0.225s-0.105-0.12-0.213-0.135h-0.012c-1.082-0.063-2.133-0.087-3.155-0.075 0.156-0.544 0.3-1.021 0.439-1.433 0.018-0.012 0.045-0.042 0.084-0.096s0.072-0.114 0.102-0.18c0.030-0.066 0.045-0.129 0.051-0.189-0.003-0.093-0.039-0.165-0.102-0.219-0.066-0.054-0.141-0.078-0.231-0.075-0.087 0.006-0.156 0.048-0.201 0.123-0.057 0.108-0.111 0.234-0.162 0.379-0.054 0.144-0.12 0.348-0.201 0.616s-0.186 0.628-0.318 1.085c-0.85 0.021-1.607 0.060-2.274 0.117-0.003 0.003-0.012-0.027-0.027-0.090s-0.054-0.114-0.123-0.15c-0.069-0.036-0.144-0.033-0.225 0.012-0.042 0.027-0.084 0.054-0.12 0.075-0.117 0.066-0.207 0.135-0.276 0.207-0.066 0.072-0.060 0.159 0.021 0.261 0.045 0.066 0.105 0.114 0.18 0.138s0.171 0.036 0.297 0.033c0.123-0.003 0.291-0.015 0.508-0.033 0.391-0.036 1.027-0.066 1.908-0.096-0.234 0.841-0.478 1.743-0.73 2.698-0.030 0.021-0.066 0.048-0.105 0.075-0.147 0.105-0.508 0.355-1.076 0.748s-1.1 0.715-1.592 0.964c-0.282 0.129-0.493 0.183-0.631 0.156s-0.234-0.093-0.282-0.204c-0.060-0.141-0.063-0.324-0.009-0.55 0.045-0.189 0.126-0.37 0.237-0.547 0.12-0.105 0.231-0.213 0.331-0.315 0.030-0.036 0.051-0.072 0.060-0.108 0.069-0.048 0.141-0.090 0.219-0.123 0.066-0.024 0.117-0.033 0.153-0.024s0.051 0.033 0.048 0.075c-0.048 0.057-0.063 0.117-0.045 0.18s0.066 0.108 0.141 0.138c0.075 0.027 0.156 0.009 0.24-0.057 0.15-0.147 0.192-0.312 0.12-0.496-0.072-0.18-0.231-0.285-0.478-0.315-0.249-0.027-0.544 0.111-0.889 0.418-0.105 0.099-0.198 0.21-0.285 0.331-0.192 0.162-0.403 0.331-0.631 0.502-0.382 0.288-0.775 0.535-1.184 0.742s-0.787 0.324-1.136 0.355c-0.361 0.015-0.601-0.081-0.727-0.285s-0.135-0.451-0.030-0.736c0.324 0.018 0.616-0.075 0.877-0.276s0.385-0.409 0.37-0.625c-0.030-0.207-0.129-0.327-0.294-0.358-0.129-0.024-0.264-0.009-0.409 0.045-0.030 0-0.066 0.006-0.102 0.021-0.526 0.225-1.094 0.394-1.704 0.499-0.61 0.108-1.136 0.156-1.571 0.144-0.054-0.12-0.129-0.213-0.231-0.279 0.228-0.297 0.526-0.736 0.889-1.319s0.628-1.097 0.793-1.541c0.105-0.331 0.096-0.556-0.027-0.67s-0.309-0.075-0.556 0.12c-0.222 0.201-0.448 0.514-0.682 0.94-0.231 0.427-0.445 0.865-0.637 1.313-0.192 0.451-0.334 0.796-0.427 1.043-0.15 0.045-0.255 0.132-0.309 0.261-0.006 0.012-0.009 0.027-0.015 0.039-0.255 0.138-0.538 0.243-0.847 0.315-0.472 0.108-0.841 0.153-1.109 0.138s-0.484-0.063-0.646-0.141c-0.165-0.078-0.27-0.216-0.321-0.415-0.039-0.207-0.054-0.37-0.048-0.487 0.003-0.087-0.003-0.162-0.021-0.219s-0.075-0.099-0.174-0.123c-0.183-0.027-0.376 0.060-0.574 0.261s-0.388 0.424-0.562 0.664l0.12-0.406c0.021-0.069 0.009-0.132-0.036-0.186s-0.111-0.084-0.192-0.087c-0.084-0.003-0.153 0.033-0.207 0.111-0.057 0.093-0.099 0.162-0.126 0.21-0.009 0.015-0.015 0.027-0.021 0.042-0.033 0.012-0.066 0.030-0.099 0.060-0.285 0.264-0.619 0.541-0.997 0.826-0.382 0.288-0.775 0.535-1.184 0.742s-0.787 0.324-1.136 0.355c-0.361 0.015-0.601-0.081-0.727-0.285s-0.135-0.451-0.030-0.736c0.324 0.018 0.616-0.075 0.877-0.276s0.385-0.409 0.37-0.625c-0.033-0.207-0.129-0.327-0.294-0.358s-0.34 0.003-0.526 0.099c-0.186 0.096-0.355 0.219-0.502 0.376-0.367 0.409-0.535 0.829-0.502 1.262s0.261 0.742 0.688 0.925c0.427 0.138 0.913 0.102 1.463-0.108s1.082-0.496 1.592-0.856c0.276-0.195 0.523-0.385 0.742-0.571-0.006 0.018-0.015 0.039-0.021 0.060-0.105 0.306-0.312 0.889-0.619 1.746-0.021 0.078-0.006 0.144 0.042 0.204 0.051 0.057 0.12 0.090 0.207 0.096 0.090 0.006 0.162-0.036 0.219-0.123 0.198-0.37 0.487-0.868 0.865-1.496s0.664-1.043 0.853-1.241c0.006 0.228 0.075 0.448 0.207 0.655 0.129 0.207 0.358 0.348 0.682 0.424 0.469 0.102 0.946 0.111 1.436 0.030 0.469-0.078 0.862-0.198 1.181-0.355-0.451 1.223-0.835 2.364-1.154 3.425-0.334 1.115-0.511 1.824-0.529 2.136 0.012 0.207 0.096 0.297 0.252 0.273 0.159-0.027 0.3-0.126 0.424-0.297 0.231-0.346 0.532-0.874 0.895-1.583s0.691-1.436 0.976-2.175c0.285-0.739 0.424-1.31 0.418-1.707 0.46 0 0.985-0.057 1.58-0.171 0.276-0.054 0.55-0.12 0.814-0.201-0.186 0.3-0.267 0.607-0.243 0.922 0.033 0.433 0.261 0.742 0.688 0.925 0.427 0.138 0.913 0.102 1.463-0.108s1.082-0.496 1.592-0.856c0.051-0.036 0.099-0.069 0.147-0.105-0.012 0.066-0.018 0.132-0.021 0.201-0.015 0.261 0.057 0.487 0.216 0.673 0.225 0.225 0.487 0.315 0.787 0.27s0.577-0.138 0.835-0.279c0.394-0.207 0.814-0.463 1.262-0.769 0.376-0.255 0.7-0.478 0.973-0.667-0.105 0.397-0.21 0.805-0.315 1.22-0.433 1.694-0.745 2.926-0.934 3.701-0.018 0.087 0.009 0.159 0.075 0.216 0.069 0.057 0.15 0.078 0.243 0.060s0.156-0.072 0.186-0.171c0.159-0.649 0.463-1.851 0.91-3.602s0.874-3.362 1.283-4.828c1.109-0.015 2.202 0.009 3.287 0.075zM16.596 10.26c0.009 0.030-0.201 0.424-0.631 1.178 0.412-0.817 0.622-1.211 0.631-1.178zM6.117 13.039c0.12-0.096 0.222-0.156 0.306-0.186-0.015 0.027-0.027 0.054-0.042 0.078-0.042 0.060-0.147 0.141-0.318 0.243-0.144 0.081-0.228 0.123-0.249 0.126 0.045-0.045 0.147-0.135 0.303-0.261zM15.037 15.073c-0.24 0.646-0.523 1.295-0.847 1.947s-0.568 1.145-0.736 1.475c0.21-0.634 0.469-1.418 0.769-2.355 0.3-0.934 0.598-1.785 0.886-2.551 0.066 0.015 0.147 0.024 0.237 0.030 0.036 0.321-0.066 0.805-0.309 1.454zM19.36 12.934c-0.042 0.060-0.147 0.141-0.318 0.243-0.144 0.081-0.228 0.123-0.249 0.126 0.042-0.048 0.144-0.138 0.3-0.264 0.12-0.096 0.222-0.156 0.306-0.186-0.012 0.030-0.027 0.057-0.039 0.081z"></path>
<path fill="#1d1d1b" d="M29.146 11.831c-0.051-0.033-0.111-0.042-0.183-0.024-0.030 0.006-0.057 0.015-0.075 0.021-0.006 0.003-0.018 0.006-0.030 0.012-0.012 0.003-0.039 0.006-0.075 0.012-0.12 0.003-0.195 0.057-0.228 0.165-0.006 0.042 0 0.084 0.024 0.126s0.063 0.075 0.123 0.096c0.063 0.024 0.135 0.033 0.216 0.030 0.081-0.006 0.156-0.027 0.222-0.066 0.099-0.060 0.135-0.141 0.105-0.243-0.015-0.054-0.048-0.096-0.099-0.129z"></path>
<path fill="#1d1d1b" d="M47.133 12.591c-0.054-0.066-0.138-0.093-0.252-0.078h0.012c-0.808 0.162-1.547 0.367-2.217 0.61-0.67 0.246-1.226 0.493-1.667 0.742-0.033-0.117-0.096-0.231-0.192-0.342s-0.198-0.207-0.309-0.288c-0.099-0.078-0.18-0.153-0.249-0.228 0.021-0.033 0.060-0.069 0.12-0.108 0.057-0.039 0.102-0.069 0.129-0.081 0.021-0.003 0.063-0.003 0.12 0 0.060 0.003 0.138-0.003 0.234-0.018s0.186-0.054 0.264-0.111c0.078-0.057 0.126-0.144 0.141-0.255 0.003-0.057-0.021-0.111-0.072-0.162-0.051-0.054-0.114-0.075-0.192-0.069-0.213 0.021-0.433 0.075-0.652 0.165s-0.4 0.222-0.541 0.4c-0.096 0.15-0.108 0.288-0.045 0.409-0.018 0.009-0.033 0.018-0.051 0.030-0.448 0.358-0.844 0.652-1.187 0.886s-0.682 0.403-1.013 0.505c-0.559 0.147-0.922-0.045-1.088-0.583-0.042-0.156-0.075-0.315-0.099-0.481-0.024-0.162-0.057-0.321-0.099-0.475-0.036-0.123-0.102-0.231-0.204-0.321-0.099-0.090-0.237-0.108-0.409-0.054-0.147 0.066-0.324 0.204-0.532 0.409-0.207 0.207-0.451 0.475-0.733 0.805 0.144-0.415 0.3-0.826 0.466-1.226 0.027-0.075 0.018-0.138-0.030-0.189-0.048-0.054-0.114-0.075-0.198-0.072-0.084 0.006-0.15 0.048-0.201 0.123-0.033 0.045-0.072 0.12-0.117 0.219-0.445 0.279-0.877 0.472-1.301 0.58-0.439 0.111-0.859 0.162-1.259 0.15s-0.691-0.105-0.874-0.279c0-0.21-0.033-0.424-0.099-0.634-0.024-0.066-0.072-0.108-0.144-0.12-0.072-0.015-0.135-0.003-0.189 0.030-0.054 0.036-0.096 0.051-0.126 0.042-0.030-0.006-0.165 0.051-0.406 0.177-0.093 0.048-0.183 0.114-0.273 0.198-0.033 0.009-0.066 0.027-0.099 0.051-0.249 0.216-0.562 0.445-0.937 0.685s-0.7 0.448-0.976 0.622c-0.033 0.018-0.072 0.039-0.117 0.063-0.12 0.075-0.258 0.15-0.415 0.225s-0.288 0.126-0.391 0.147c-0.105 0.024-0.168 0.009-0.192-0.039-0.057-0.165-0.048-0.403 0.027-0.715 0.075-0.309 0.168-0.574 0.279-0.793 0.096-0.078 0.141-0.18 0.138-0.312-0.006-0.084-0.054-0.156-0.144-0.21-0.090-0.057-0.183-0.042-0.282 0.042-0.084 0.096-0.174 0.255-0.273 0.481-0.096 0.225-0.174 0.475-0.231 0.742-0.057 0.27-0.072 0.52-0.042 0.751s0.141 0.397 0.337 0.496c0.156 0.069 0.331 0.075 0.529 0.012s0.445-0.174 0.745-0.339c0.331-0.18 0.727-0.415 1.184-0.706 0.066-0.042 0.129-0.084 0.192-0.126-0.117 0.315-0.171 0.604-0.159 0.862 0.018 0.4 0.201 0.604 0.541 0.619 0.267-0.021 0.553-0.201 0.859-0.538 0.303-0.336 0.508-0.724 0.61-1.16 0.37 0.168 0.865 0.219 1.481 0.15 0.619-0.069 1.163-0.222 1.631-0.457 0.042-0.021 0.081-0.042 0.12-0.060-0.129 0.327-0.252 0.658-0.37 0.991-0.096 0.279-0.195 0.553-0.3 0.823-0.021 0.075-0.012 0.141 0.030 0.204s0.105 0.099 0.189 0.108c0.087 0.012 0.165-0.027 0.234-0.111 0.105-0.144 0.291-0.385 0.556-0.721s0.535-0.664 0.814-0.976c0.279-0.315 0.463-0.499 0.556-0.553 0.027 0.051 0.060 0.201 0.096 0.454 0.036 0.246 0.090 0.478 0.168 0.691 0.117 0.303 0.303 0.526 0.559 0.667 0.258 0.141 0.568 0.177 0.934 0.105 0.427-0.102 0.874-0.309 1.349-0.619 0.472-0.309 0.871-0.616 1.199-0.913 0.015-0.015 0.027-0.027 0.039-0.042 0.021 0.018 0.045 0.036 0.069 0.054 0.117 0.084 0.21 0.174 0.285 0.267s0.117 0.201 0.126 0.324c-0.168 0.102-0.373 0.249-0.613 0.442s-0.433 0.397-0.577 0.613c-0.144 0.216-0.159 0.421-0.048 0.61 0.135 0.165 0.334 0.186 0.598 0.066s0.508-0.318 0.733-0.586c0.222-0.27 0.361-0.565 0.415-0.886 0.574-0.342 1.211-0.634 1.908-0.877s1.385-0.43 2.061-0.562c0.108-0.027 0.171-0.081 0.183-0.159 0.003-0.072-0.018-0.144-0.072-0.21zM32.099 14.151c-0.12 0.237-0.261 0.436-0.421 0.589s-0.267 0.234-0.324 0.24c-0.057 0.006-0.084-0.081-0.081-0.255 0.021-0.37 0.132-0.73 0.331-1.079 0.084-0.144 0.165-0.264 0.249-0.364 0.006-0.006 0.012-0.012 0.015-0.018 0.114-0.129 0.228-0.219 0.346-0.267-0.060 0.087-0.072 0.168-0.036 0.237 0.030 0.075 0.078 0.129 0.138 0.165-0.021 0.264-0.093 0.514-0.216 0.751zM42.053 15.187c-0.147 0.138-0.267 0.228-0.367 0.267 0.108-0.096 0.321-0.285 0.634-0.571-0.030 0.063-0.12 0.165-0.267 0.303z"></path>
<path fill="#1d1d1b" d="M11.946 22.566c0.222 0 0.628 0.021 0.973 0.021 0.487 0 0.736-0.012 0.898-0.021 0.042 0.021 0.048 0.237 0 0.264-0.147 0.033-0.282 0.060-0.385 0.087-0.135 0.039-0.15 0.129-0.129 0.237 0.108 0.526 0.448 1.764 0.67 2.569 0.006 0.012 0.021 0.006 0.033 0 0.345-0.919 0.763-2.13 1-2.905 0.129 0.012 0.336 0.012 0.439 0 0.21 0.682 0.811 2.407 1.027 2.986 0.006 0.006 0.033 0.006 0.042-0.006 0.195-0.595 0.601-1.92 0.73-2.455 0.054-0.243 0.054-0.379-0.162-0.439-0.114-0.027-0.228-0.048-0.421-0.075-0.054-0.033-0.033-0.243 0.006-0.264 0.168 0 0.535 0.021 0.832 0.021 0.502 0 0.709-0.021 0.85-0.021 0.033 0.033 0.033 0.237 0 0.264-0.114 0.027-0.183 0.042-0.276 0.069-0.168 0.054-0.276 0.129-0.379 0.4-0.309 0.817-0.871 2.569-1.178 3.515-0.081-0.006-0.331-0.006-0.418 0.006-0.15-0.547-0.838-2.548-1.027-3.022-0.006 0-0.021 0.006-0.027 0.012-0.358 0.967-0.796 2.196-1.061 3.001-0.087-0.006-0.318-0.006-0.412 0.006-0.204-0.859-0.73-2.833-0.946-3.509-0.081-0.243-0.141-0.346-0.318-0.4-0.114-0.033-0.195-0.048-0.394-0.081-0.024-0.033-0.018-0.234 0.030-0.261z"></path>
<path fill="#1d1d1b" d="M18.447 22.566c0.183 0 0.628 0.021 1.012 0.021h1.364c0.264 0 0.622-0.006 0.784-0.021 0.012 0.006 0.033 0.027 0.033 0.042-0.048 0.189-0.108 0.676-0.114 0.967-0.039 0.048-0.27 0.039-0.303 0.012-0.006-0.189-0.039-0.282-0.075-0.4-0.054-0.168-0.123-0.231-0.312-0.243-0.102-0.006-0.988-0.006-1.049 0-0.054 0.012-0.096 0.108-0.096 0.15 0 0.466-0.006 0.865-0.006 1.319 0 0.012 0.021 0.048 0.039 0.048 0.352 0 0.745 0.006 1.015-0.021 0.102-0.015 0.156-0.075 0.189-0.174 0.027-0.081 0.054-0.189 0.075-0.297 0.066-0.027 0.276-0.012 0.309 0.027-0.012 0.156-0.048 0.412-0.048 0.67 0 0.231 0.006 0.454 0.012 0.664-0.042 0.033-0.276 0.039-0.318 0-0.033-0.162-0.033-0.222-0.066-0.312-0.027-0.102-0.096-0.147-0.189-0.162-0.222-0.027-0.67-0.021-0.979-0.021-0.021 0-0.039 0.027-0.039 0.054 0 0.439 0 0.967 0.012 1.238 0 0.108 0.066 0.237 0.156 0.27 0.135 0.042 0.994 0.033 1.142 0.033 0.183 0 0.282-0.054 0.427-0.255 0.108-0.141 0.237-0.421 0.309-0.583 0.054-0.006 0.249 0.054 0.285 0.102-0.033 0.222-0.177 0.73-0.297 0.973-0.033 0.081-0.087 0.135-0.433 0.135-0.718 0-1.373-0.027-1.866-0.027-0.454 0-0.913 0.021-1.196 0.021-0.033-0.027-0.042-0.228-0.006-0.27 0.237-0.027 0.454-0.048 0.58-0.081 0.162-0.039 0.21-0.129 0.222-0.346 0.012-0.114 0.006-0.826 0.006-1.574 0-0.595 0-1.169-0.006-1.292-0.012-0.222-0.042-0.282-0.195-0.331-0.096-0.027-0.222-0.048-0.406-0.075-0.027-0.045-0.015-0.228 0.027-0.261z"></path>
<path fill="#1d1d1b" d="M22.434 22.566c0.114 0 0.649 0.021 0.85 0.021 0.379 0 0.643-0.021 1.352-0.021 0.595 0 1.094 0.162 1.454 0.475 0.433 0.379 0.664 0.904 0.664 1.547 0 0.913-0.412 1.439-0.823 1.737-0.412 0.312-0.946 0.487-1.709 0.487-0.406 0-1.103-0.012-1.682-0.021h-0.201c-0.027-0.054-0.033-0.237 0-0.27 0.249-0.015 0.385-0.042 0.508-0.069 0.129-0.033 0.21-0.102 0.222-0.324 0.021-0.421 0.012-0.919 0.012-1.487 0-0.406 0.006-1.196-0.006-1.448-0.021-0.21-0.108-0.264-0.282-0.303-0.087-0.021-0.21-0.042-0.379-0.060-0.018-0.039-0.012-0.222 0.021-0.261zM23.882 26.325c0.141 0.114 0.427 0.162 0.676 0.162 0.324 0 0.643-0.060 0.952-0.346 0.318-0.291 0.535-0.736 0.535-1.445 0-0.682-0.255-1.238-0.784-1.562-0.297-0.189-0.682-0.264-1.124-0.264-0.129 0-0.255 0.006-0.331 0.039-0.021 0.012-0.060 0.069-0.060 0.093-0.012 0.123-0.012 1.049-0.012 1.595 0 0.562 0 1.346 0.012 1.439 0.006 0.084 0.045 0.225 0.135 0.288z"></path>
<path fill="#1d1d1b" d="M27.376 22.566c0.114 0 0.649 0.021 0.85 0.021 0.379 0 0.643-0.021 1.352-0.021 0.595 0 1.097 0.162 1.454 0.475 0.433 0.379 0.664 0.904 0.664 1.547 0 0.913-0.412 1.439-0.826 1.737-0.412 0.312-0.946 0.487-1.709 0.487-0.406 0-1.103-0.012-1.682-0.021h-0.204c-0.027-0.054-0.033-0.237 0-0.27 0.249-0.015 0.385-0.042 0.508-0.069 0.129-0.033 0.21-0.102 0.222-0.324 0.021-0.421 0.012-0.919 0.012-1.487 0-0.406 0.006-1.196-0.006-1.448-0.021-0.21-0.108-0.264-0.282-0.303-0.087-0.021-0.21-0.042-0.379-0.060-0.015-0.039-0.006-0.222 0.027-0.261zM28.821 26.325c0.141 0.114 0.427 0.162 0.676 0.162 0.324 0 0.643-0.060 0.952-0.346 0.318-0.291 0.535-0.736 0.535-1.445 0-0.682-0.258-1.238-0.784-1.562-0.297-0.189-0.682-0.264-1.124-0.264-0.129 0-0.255 0.006-0.331 0.039-0.021 0.012-0.060 0.069-0.060 0.093-0.012 0.123-0.012 1.049-0.012 1.595 0 0.562 0 1.346 0.012 1.439 0.009 0.084 0.048 0.225 0.135 0.288z"></path>
<path fill="#1d1d1b" d="M32.324 22.566c0.135 0 0.574 0.021 0.931 0.021 0.364 0 0.784-0.021 0.967-0.021 0.027 0.042 0.033 0.216 0 0.264-0.183 0.021-0.303 0.033-0.4 0.060-0.162 0.042-0.189 0.123-0.204 0.324-0.021 0.291-0.012 0.778-0.012 1.373 0 0.628 0.006 1.265 0.021 1.502 0.006 0.21 0.039 0.303 0.255 0.358 0.102 0.021 0.255 0.048 0.454 0.075 0.033 0.027 0.015 0.243-0.021 0.27-0.147 0-0.637-0.021-0.994-0.021-0.4 0-0.898 0.021-1.022 0.021-0.039-0.021-0.039-0.243-0.006-0.27 0.183-0.021 0.276-0.033 0.379-0.054 0.216-0.054 0.243-0.15 0.264-0.285 0.027-0.195 0.021-0.595 0.021-1.703 0-0.568 0.006-0.952-0.012-1.271-0.012-0.183-0.033-0.255-0.177-0.297-0.12-0.033-0.249-0.054-0.454-0.081-0.033-0.036-0.018-0.231 0.009-0.264z"></path>
<path fill="#1d1d1b" d="M34.689 22.566c0.21 0 0.562 0.021 0.994 0.021h0.309c0.027 0.087 0.054 0.141 0.228 0.364 0.655 0.838 1.932 2.386 2.292 2.812 0.015 0.006 0.027 0 0.027-0.012 0-0.952 0.006-1.953-0.021-2.473-0.012-0.21-0.054-0.297-0.27-0.352-0.135-0.033-0.297-0.069-0.493-0.093-0.033-0.033-0.033-0.231 0-0.264 0.168 0 0.493 0.021 0.994 0.021 0.249 0 0.697-0.021 0.79-0.021 0.039 0.033 0.033 0.222 0 0.264-0.129 0.027-0.243 0.054-0.318 0.081-0.189 0.060-0.231 0.168-0.249 0.364-0.042 0.526-0.033 0.988-0.054 2.581 0 0.318 0.006 0.718 0.015 0.946-0.075-0.015-0.466-0.006-0.535 0.006-0.385-0.541-2.055-2.65-2.548-3.266-0.006-0.012-0.033-0.006-0.033 0-0.006 0.718-0.012 2.142 0.012 2.536 0.012 0.216 0.087 0.318 0.285 0.367 0.102 0.033 0.249 0.048 0.439 0.075 0.033 0.048 0.021 0.231-0.012 0.27-0.189 0-0.499-0.021-0.913-0.021-0.487 0-0.772 0.021-0.919 0.021-0.033-0.021-0.027-0.237 0-0.27 0.162-0.021 0.303-0.039 0.412-0.075 0.156-0.054 0.237-0.15 0.249-0.352 0.033-0.385 0.048-1.373 0.066-2.806 0-0.114-0.033-0.27-0.21-0.346-0.129-0.042-0.282-0.087-0.541-0.114-0.039-0.036-0.030-0.231 0.003-0.264z"></path>
<path fill="#1d1d1b" d="M44.126 26.622c-0.264 0.096-0.925 0.27-1.529 0.27-1.649 0-2.488-0.85-2.488-2.232 0-0.919 0.46-1.601 1.217-1.941 0.379-0.174 0.817-0.255 1.34-0.255 0.595 0 0.952 0.114 1.412 0.156-0.054 0.312-0.129 0.871-0.129 1.157-0.021 0.039-0.27 0.060-0.303 0.027-0.060-0.508-0.135-0.724-0.331-0.838-0.201-0.12-0.46-0.195-0.919-0.195-1.022 0-1.499 0.751-1.499 1.791 0 1.148 0.607 2.028 1.839 2.028 0.189 0 0.331-0.027 0.421-0.093 0.075-0.048 0.114-0.195 0.12-0.264 0.021-0.21 0.012-0.385 0.012-0.622-0.006-0.195-0.048-0.291-0.237-0.358-0.12-0.033-0.303-0.048-0.547-0.087-0.048-0.027-0.021-0.249 0.012-0.27 0.177 0 0.52 0.021 1.028 0.021 0.481 0 0.709-0.012 0.832-0.021 0.027 0.027 0.021 0.255-0.006 0.276-0.069 0.012-0.162 0.027-0.228 0.048-0.135 0.039-0.168 0.129-0.177 0.297-0.006 0.189 0 0.628 0 0.724 0.006 0.087 0.027 0.129 0.195 0.21 0 0.015-0.012 0.15-0.033 0.171z"></path>
<path fill="#1d1d1b" d="M45.808 26.379c0.168 0.135 0.412 0.195 0.655 0.195 0.291 0 0.703-0.162 0.703-0.676 0-0.421-0.255-0.601-0.886-0.952-0.649-0.358-1.055-0.676-1.055-1.313 0-0.751 0.61-1.169 1.373-1.169 0.514 0 0.805 0.093 1.103 0.129-0.048 0.222-0.087 0.664-0.114 0.994-0.021 0.048-0.228 0.048-0.264 0.006-0.039-0.358-0.096-0.574-0.249-0.688-0.162-0.114-0.379-0.15-0.568-0.15-0.46 0-0.682 0.358-0.682 0.649 0 0.385 0.168 0.547 0.466 0.736 0.276 0.174 0.655 0.337 0.898 0.481 0.379 0.222 0.634 0.508 0.634 0.994 0 0.649-0.556 1.277-1.562 1.277-0.433 0-0.85-0.15-1.028-0.216-0.060-0.081-0.204-0.832-0.222-1.082 0.015-0.060 0.243-0.114 0.285-0.087 0.129 0.403 0.27 0.694 0.514 0.871z"></path>
<path fill="#1d1d1b" d="M12.555 31.33c0.195-0.463 0.622-1.571 0.718-1.857 0.036-0.102 0.075-0.216 0.087-0.285 0.021 0.003 0.078 0.003 0.162 0.003 0.105 0 0.153 0 0.177-0.003 0.021 0.087 0.048 0.171 0.078 0.261 0.087 0.246 0.577 1.535 0.751 1.929 0.141 0.312 0.177 0.34 0.511 0.385 0.027 0.018 0.009 0.153-0.009 0.177-0.114-0.003-0.327-0.012-0.577-0.012-0.264 0-0.553 0.012-0.64 0.012-0.018-0.021-0.021-0.153 0-0.177 0.096-0.012 0.189-0.027 0.255-0.048 0.054-0.021 0.063-0.078 0.054-0.111-0.057-0.186-0.171-0.484-0.243-0.658-0.009-0.021-0.036-0.030-0.045-0.030-0.078-0.003-0.282-0.003-0.445-0.003-0.282 0-0.309 0-0.358 0.003-0.021 0-0.054 0.030-0.054 0.039-0.093 0.252-0.207 0.538-0.207 0.625 0 0.084 0.018 0.114 0.144 0.144 0.057 0.012 0.153 0.027 0.234 0.036 0.018 0.021 0.009 0.153-0.012 0.177-0.087 0-0.318-0.012-0.613-0.012-0.285 0-0.433 0.012-0.517 0.012-0.018-0.021-0.018-0.153 0-0.177 0.331-0.045 0.394-0.072 0.547-0.43zM13.412 29.714c-0.075 0.234-0.234 0.64-0.318 0.904 0 0.012 0.003 0.027 0.018 0.030 0.048 0.003 0.219 0.003 0.348 0.003 0.111 0 0.234 0 0.291-0.003 0.012 0 0.027-0.021 0.021-0.045-0.084-0.228-0.261-0.718-0.337-0.895-0.003 0.003-0.015 0-0.024 0.006z"></path>
<path fill="#1d1d1b" d="M15.109 29.176c0.135 0 0.367 0.012 0.649 0.012h0.204c0.018 0.057 0.036 0.093 0.15 0.237 0.427 0.547 1.262 1.556 1.496 1.836 0.009 0.006 0.018 0 0.018-0.009 0-0.622 0.003-1.274-0.012-1.613-0.009-0.138-0.036-0.195-0.177-0.228-0.087-0.021-0.195-0.045-0.321-0.063-0.021-0.021-0.021-0.15 0-0.171 0.111 0 0.321 0.012 0.649 0.012 0.162 0 0.454-0.012 0.517-0.012 0.027 0.021 0.021 0.147 0 0.171-0.084 0.018-0.159 0.036-0.207 0.054-0.123 0.039-0.15 0.111-0.162 0.237-0.027 0.346-0.021 0.643-0.036 1.685 0 0.207 0.003 0.469 0.009 0.616-0.048-0.009-0.303-0.003-0.349 0.006-0.252-0.352-1.34-1.731-1.664-2.13-0.003-0.009-0.021-0.003-0.021 0-0.003 0.469-0.009 1.397 0.009 1.655 0.009 0.141 0.057 0.207 0.186 0.237 0.066 0.021 0.162 0.030 0.285 0.048 0.021 0.030 0.015 0.15-0.009 0.177-0.123 0-0.327-0.012-0.595-0.012-0.318 0-0.502 0.012-0.601 0.012-0.021-0.012-0.018-0.153 0-0.177 0.105-0.012 0.198-0.027 0.27-0.048 0.102-0.036 0.153-0.096 0.162-0.228 0.021-0.252 0.030-0.895 0.045-1.83 0-0.075-0.021-0.177-0.138-0.225-0.084-0.027-0.186-0.057-0.352-0.075-0.033-0.024-0.027-0.15-0.006-0.174z"></path>
<path fill="#1d1d1b" d="M18.549 29.176c0.075 0 0.424 0.012 0.556 0.012 0.246 0 0.421-0.012 0.883-0.012 0.388 0 0.715 0.105 0.949 0.309 0.282 0.246 0.433 0.592 0.433 1.009 0 0.595-0.27 0.94-0.538 1.133-0.27 0.204-0.619 0.318-1.118 0.318-0.264 0-0.718-0.009-1.1-0.012h-0.132c-0.018-0.036-0.021-0.153 0-0.177 0.162-0.009 0.252-0.027 0.331-0.045 0.084-0.021 0.135-0.066 0.144-0.213 0.012-0.273 0.009-0.601 0.009-0.97 0-0.264 0.003-0.781-0.003-0.943-0.012-0.138-0.072-0.171-0.186-0.198-0.057-0.012-0.138-0.027-0.246-0.039-0.006-0.024-0.003-0.144 0.018-0.171zM19.496 31.63c0.093 0.075 0.276 0.105 0.442 0.105 0.213 0 0.421-0.039 0.622-0.225 0.207-0.189 0.349-0.481 0.349-0.943 0-0.445-0.168-0.808-0.511-1.018-0.195-0.123-0.445-0.171-0.733-0.171-0.084 0-0.168 0.006-0.216 0.027-0.012 0.009-0.039 0.045-0.039 0.063-0.009 0.078-0.009 0.685-0.009 1.043 0 0.367 0 0.877 0.009 0.94 0.003 0.048 0.030 0.141 0.087 0.18z"></path>
<path fill="#1d1d1b" d="M23.236 31.606c-0.273-0.294-0.388-0.658-0.388-1.076 0-0.337 0.102-0.622 0.3-0.874 0.243-0.321 0.724-0.547 1.193-0.547 0.913 0 1.376 0.661 1.376 1.376 0 0.412-0.093 0.688-0.279 0.94-0.291 0.379-0.742 0.574-1.181 0.574-0.454 0-0.784-0.141-1.021-0.394zM24.877 31.615c0.27-0.207 0.361-0.559 0.361-0.961 0-0.496-0.162-0.934-0.502-1.166-0.153-0.102-0.337-0.159-0.559-0.159-0.141 0-0.264 0.036-0.37 0.093-0.312 0.171-0.469 0.559-0.469 1.006 0 0.481 0.18 0.961 0.559 1.196 0.153 0.093 0.312 0.132 0.526 0.132 0.174 0 0.343-0.048 0.454-0.141z"></path>
<path fill="#1d1d1b" d="M28.275 29.407c-0.138-0.063-0.337-0.087-0.538-0.087-0.628 0-0.958 0.469-0.958 1.187 0 0.601 0.34 1.253 1.148 1.253 0.243 0 0.394-0.078 0.46-0.123 0.102-0.075 0.228-0.252 0.358-0.46 0.036-0.006 0.132 0.054 0.144 0.093-0.036 0.168-0.237 0.535-0.343 0.61-0.123 0.048-0.436 0.123-0.706 0.123-1.009 0-1.556-0.55-1.556-1.457 0-0.481 0.225-0.964 0.709-1.232 0.237-0.129 0.526-0.204 0.892-0.204 0.421 0 0.718 0.078 0.922 0.093-0.027 0.177-0.063 0.508-0.066 0.715-0.021 0.027-0.177 0.045-0.18 0.012-0.054-0.358-0.105-0.436-0.285-0.523z"></path>
<path fill="#1d1d1b" d="M31.321 29.407c-0.138-0.063-0.337-0.087-0.538-0.087-0.628 0-0.958 0.469-0.958 1.187 0 0.601 0.34 1.253 1.148 1.253 0.243 0 0.394-0.078 0.46-0.123 0.102-0.075 0.228-0.252 0.358-0.46 0.036-0.006 0.132 0.054 0.144 0.093-0.036 0.168-0.237 0.535-0.343 0.61-0.123 0.048-0.436 0.123-0.706 0.123-1.009 0-1.556-0.55-1.556-1.457 0-0.481 0.225-0.964 0.709-1.232 0.237-0.129 0.526-0.204 0.892-0.204 0.421 0 0.718 0.078 0.922 0.093-0.027 0.177-0.063 0.508-0.066 0.715-0.021 0.027-0.177 0.045-0.18 0.012-0.051-0.358-0.105-0.436-0.285-0.523z"></path>
<path fill="#1d1d1b" d="M32.637 31.33c0.195-0.463 0.622-1.571 0.718-1.857 0.036-0.102 0.075-0.216 0.087-0.285 0.021 0.003 0.078 0.003 0.162 0.003 0.105 0 0.153 0 0.177-0.003 0.021 0.087 0.048 0.171 0.078 0.261 0.087 0.246 0.577 1.535 0.751 1.929 0.141 0.312 0.177 0.34 0.511 0.385 0.027 0.018 0.009 0.153-0.009 0.177-0.114-0.003-0.327-0.012-0.577-0.012-0.264 0-0.553 0.012-0.64 0.012-0.018-0.021-0.021-0.153 0-0.177 0.096-0.012 0.189-0.027 0.255-0.048 0.054-0.021 0.063-0.078 0.054-0.111-0.057-0.186-0.171-0.484-0.243-0.658-0.009-0.021-0.036-0.030-0.045-0.030-0.078-0.003-0.282-0.003-0.445-0.003-0.282 0-0.309 0-0.358 0.003-0.021 0-0.054 0.030-0.054 0.039-0.093 0.252-0.207 0.538-0.207 0.625 0 0.084 0.018 0.114 0.144 0.144 0.057 0.012 0.153 0.027 0.234 0.036 0.018 0.021 0.009 0.153-0.012 0.177-0.087 0-0.318-0.012-0.613-0.012-0.285 0-0.433 0.012-0.517 0.012-0.018-0.021-0.018-0.153 0-0.177 0.331-0.045 0.391-0.072 0.547-0.43zM33.493 29.714c-0.075 0.234-0.234 0.64-0.318 0.904 0 0.012 0.003 0.027 0.018 0.030 0.048 0.003 0.219 0.003 0.349 0.003 0.111 0 0.234 0 0.291-0.003 0.012 0 0.027-0.021 0.021-0.045-0.084-0.228-0.261-0.718-0.337-0.895-0.003 0.003-0.015 0-0.024 0.006z"></path>
<path fill="#1d1d1b" d="M35.915 31.663c0.111 0.087 0.27 0.129 0.427 0.129 0.189 0 0.46-0.105 0.46-0.442 0-0.273-0.168-0.394-0.577-0.622-0.424-0.234-0.688-0.442-0.688-0.856 0-0.49 0.397-0.763 0.895-0.763 0.337 0 0.526 0.063 0.718 0.084-0.030 0.144-0.057 0.433-0.075 0.649-0.012 0.030-0.15 0.030-0.171 0.006-0.027-0.234-0.063-0.376-0.162-0.451-0.105-0.075-0.246-0.096-0.37-0.096-0.3 0-0.445 0.234-0.445 0.424 0 0.252 0.111 0.358 0.303 0.481 0.18 0.114 0.427 0.219 0.586 0.312 0.246 0.144 0.415 0.331 0.415 0.649 0 0.424-0.361 0.832-1.019 0.832-0.282 0-0.556-0.096-0.67-0.141-0.039-0.054-0.132-0.544-0.144-0.706 0.009-0.039 0.159-0.075 0.186-0.057 0.078 0.264 0.171 0.454 0.331 0.568z"></path>
<path fill="#1d1d1b" d="M37.606 29.176c0.087 0 0.376 0.012 0.61 0.012 0.237 0 0.511-0.012 0.631-0.012 0.018 0.027 0.021 0.141 0 0.171-0.12 0.012-0.198 0.021-0.261 0.039-0.105 0.027-0.123 0.078-0.132 0.213-0.012 0.189-0.009 0.508-0.009 0.895 0 0.412 0.003 0.826 0.012 0.979 0.003 0.138 0.027 0.198 0.168 0.234 0.066 0.012 0.168 0.030 0.294 0.048 0.021 0.018 0.009 0.159-0.012 0.177-0.096 0-0.415-0.012-0.649-0.012-0.261 0-0.586 0.012-0.667 0.012-0.027-0.012-0.027-0.159-0.003-0.177 0.12-0.012 0.18-0.021 0.246-0.036 0.141-0.036 0.159-0.096 0.171-0.186 0.018-0.129 0.012-0.388 0.012-1.112 0-0.37 0.003-0.622-0.009-0.829-0.009-0.12-0.021-0.168-0.114-0.195-0.078-0.021-0.162-0.036-0.294-0.054-0.021-0.018-0.012-0.144 0.006-0.168z"></path>
<path fill="#1d1d1b" d="M39.673 31.606c-0.273-0.294-0.388-0.658-0.388-1.076 0-0.337 0.102-0.622 0.3-0.874 0.243-0.321 0.724-0.547 1.193-0.547 0.913 0 1.376 0.661 1.376 1.376 0 0.412-0.093 0.688-0.279 0.94-0.291 0.379-0.742 0.574-1.181 0.574-0.451 0-0.784-0.141-1.022-0.394zM41.314 31.615c0.27-0.207 0.361-0.559 0.361-0.961 0-0.496-0.162-0.934-0.502-1.166-0.153-0.102-0.337-0.159-0.559-0.159-0.141 0-0.264 0.036-0.37 0.093-0.312 0.171-0.469 0.559-0.469 1.006 0 0.481 0.18 0.961 0.562 1.196 0.153 0.093 0.312 0.132 0.526 0.132 0.174 0 0.343-0.048 0.451-0.141z"></path>
<path fill="#1d1d1b" d="M42.509 29.176c0.135 0 0.367 0.012 0.649 0.012h0.204c0.018 0.057 0.036 0.093 0.15 0.237 0.427 0.547 1.262 1.556 1.496 1.836 0.009 0.006 0.018 0 0.018-0.009 0-0.622 0.003-1.274-0.012-1.613-0.009-0.138-0.036-0.195-0.177-0.228-0.087-0.021-0.195-0.045-0.321-0.063-0.021-0.021-0.021-0.15 0-0.171 0.111 0 0.321 0.012 0.649 0.012 0.162 0 0.454-0.012 0.517-0.012 0.027 0.021 0.021 0.147 0 0.171-0.084 0.018-0.159 0.036-0.207 0.054-0.123 0.039-0.15 0.111-0.162 0.237-0.027 0.346-0.021 0.643-0.036 1.685 0 0.207 0.003 0.469 0.009 0.616-0.048-0.009-0.303-0.003-0.349 0.006-0.252-0.352-1.34-1.731-1.664-2.13-0.003-0.009-0.021-0.003-0.021 0-0.003 0.469-0.009 1.397 0.009 1.655 0.009 0.141 0.057 0.207 0.186 0.237 0.066 0.021 0.162 0.030 0.288 0.048 0.021 0.030 0.012 0.15-0.009 0.177-0.123 0-0.327-0.012-0.595-0.012-0.318 0-0.502 0.012-0.601 0.012-0.021-0.012-0.018-0.153 0-0.177 0.105-0.012 0.198-0.027 0.27-0.048 0.102-0.036 0.153-0.096 0.162-0.228 0.021-0.252 0.030-0.895 0.045-1.83 0-0.075-0.021-0.177-0.138-0.225-0.084-0.027-0.186-0.057-0.352-0.075-0.033-0.024-0.030-0.15-0.009-0.174z"></path>
<path fill="#1d1d1b" d="M46.511 31.663c0.111 0.087 0.27 0.129 0.427 0.129 0.189 0 0.46-0.105 0.46-0.442 0-0.273-0.168-0.394-0.577-0.622-0.424-0.234-0.688-0.442-0.688-0.856 0-0.49 0.397-0.763 0.895-0.763 0.337 0 0.526 0.063 0.718 0.084-0.030 0.144-0.057 0.433-0.075 0.649-0.012 0.030-0.15 0.030-0.171 0.006-0.027-0.234-0.060-0.376-0.162-0.451-0.105-0.075-0.246-0.096-0.37-0.096-0.3 0-0.445 0.234-0.445 0.424 0 0.252 0.111 0.358 0.303 0.481 0.18 0.114 0.427 0.219 0.586 0.312 0.246 0.144 0.415 0.331 0.415 0.649 0 0.424-0.361 0.832-1.019 0.832-0.282 0-0.556-0.096-0.67-0.141-0.039-0.054-0.132-0.544-0.144-0.706 0.009-0.039 0.159-0.075 0.186-0.057 0.078 0.264 0.171 0.454 0.331 0.568z"></path>
</svg>
