<?xml version="1.0" standalone="no"?>
<!DOCTYPE svg PUBLIC "-//W3C//DTD SVG 1.1//EN" "http://www.w3.org/Graphics/SVG/1.1/DTD/svg11.dtd" >
<svg xmlns="http://www.w3.org/2000/svg" xmlns:xlink="http://www.w3.org/1999/xlink" version="1.1">
<metadata>
Created by FontForge 20170731 at Mon Dec 31 14:56:30 2018
 By Aleksey,,,
Copyright (c) 2018 by Paranesia. All Rights Reserved
</metadata>
<defs>
<font id="Font" horiz-adv-x="1558" >
  <font-face 
    font-family="Artifact"
    font-weight="400"
    font-stretch="normal"
    units-per-em="2048"
    panose-1="2 0 5 0 0 0 0 0 0 0"
    ascent="1638"
    descent="-410"
    x-height="462.5"
    cap-height="1547"
    bbox="-805.96 -1055.95 2107.04 1747.37"
    underline-thickness="150"
    underline-position="-442"
    unicode-range="U+001D-007A"
  />
<missing-glyph horiz-adv-x="1024" 
 />
    <glyph glyph-name=".notdef" horiz-adv-x="1024" 
 />
    <glyph glyph-name=".null" horiz-adv-x="0" 
 />
    <glyph glyph-name=".null" horiz-adv-x="0" 
 />
    <glyph glyph-name="nonmarkingreturn" horiz-adv-x="508" 
 />
    <glyph glyph-name="space" unicode=" " horiz-adv-x="602" 
 />
    <glyph glyph-name="space" unicode="&#xa0;" horiz-adv-x="602" 
 />
    <glyph glyph-name="plus" unicode="+" horiz-adv-x="1219" 
 />
    <glyph glyph-name="comma" unicode="," horiz-adv-x="292" 
 />
    <glyph glyph-name="hyphen" unicode="-" horiz-adv-x="980" 
 />
    <glyph glyph-name="hyphen" unicode="&#xad;" horiz-adv-x="980" 
 />
    <glyph glyph-name="period" unicode="." horiz-adv-x="362" 
 />
    <glyph glyph-name="slash" unicode="/" horiz-adv-x="1307" 
 />
    <glyph glyph-name="zero" unicode="0" horiz-adv-x="1061" 
 />
    <glyph glyph-name="one" unicode="1" horiz-adv-x="724" 
 />
    <glyph glyph-name="two" unicode="2" horiz-adv-x="1090" 
 />
    <glyph glyph-name="three" unicode="3" horiz-adv-x="1029" 
 />
    <glyph glyph-name="four" unicode="4" horiz-adv-x="1244" 
 />
    <glyph glyph-name="five" unicode="5" horiz-adv-x="1056" 
 />
    <glyph glyph-name="six" unicode="6" horiz-adv-x="1005" 
 />
    <glyph glyph-name="seven" unicode="7" horiz-adv-x="1015" 
 />
    <glyph glyph-name="eight" unicode="8" horiz-adv-x="939" 
 />
    <glyph glyph-name="nine" unicode="9" horiz-adv-x="983" 
 />
    <glyph glyph-name="question" unicode="?" horiz-adv-x="894" 
 />
    <glyph glyph-name="at" unicode="@" horiz-adv-x="1276" 
 />
    <glyph glyph-name="A" unicode="A" horiz-adv-x="1398" 
d="M1157 432v0q34 1 41 -20.5t-4.5 -42.5t-42.5 -25q-96 -7 -180 -15q-59 -251 -223 -927q-4 -16 -17 -29t-36 -13q-21 0 -35 13.5t-10 31.5q114 466 220 913q-257 -27 -524 -78q-79 -137 -132 -230q-91 -164 -168 -291q-14 -20 -37 -19.5t-35.5 14.5t-4.5 33
q61 118 136.5 252t122.5 217q-13 -3 -42 -10q-55 -14 -85.5 -14t-35.5 34q-4 26 16 41t46 17.5t34 -3.5q62 17 122 30q124 221 339.5 578.5t376.5 560.5q99 119 163.5 120t46.5 -142q-28 -186 -101.5 -511t-114.5 -498q72 7 164 13zM892 409l4 20q29 120 78 333.5
t91.5 418.5t47.5 267q-60 -57 -208.5 -283t-291.5 -466.5t-212 -362.5q236 47 491 73z" />
    <glyph glyph-name="B" unicode="B" 
d="M1572 425h-2q31 4 46.5 -15t12 -40.5t-34.5 -29.5q-197 -38 -384 -94q-87 -157 -223 -282.5t-283.5 -201t-271.5 -87.5q-147 -7 -169 77.5t97 188.5q88 74 293.5 180.5t485.5 196.5q26 49 40 106.5t5 115.5q-26 120 -151 173.5t-294 45.5t-316 -72q-156 -609 -338 -1215
q-9 -24 -33.5 -30.5t-45.5 5.5t-18 36q100 616 290 1126q-21 -13 -42 2t-23.5 37t19.5 39q57 39 109 77q53 204 82 317.5t43 171t20 88.5q-3 0 -15.5 13.5t-10.5 33.5q6 31 31 50.5t59 19.5q20 -1 33.5 -13t12.5 -29q-5 -58 -21.5 -132t-52.5 -209q36 60 159.5 193.5
t272.5 213.5q97 47 162 39t85 -52.5t-11 -99.5q-53 -85 -172.5 -193t-248.5 -208t-177 -135q80 20 221 15.5t257.5 -52.5t176.5 -145q41 -74 38.5 -156t-26.5 -142q139 39 313 72zM1007 1413q-107 -49 -244 -186.5t-249 -338.5q75 55 274.5 214t293.5 277q30 43 27 53
t-20.5 8t-43 -11t-38.5 -16zM444 -235h-2q79 11 192 64.5t232.5 152t200.5 217.5q-231 -80 -413 -179.5t-238 -151.5q-35 -32 -50.5 -59.5t-1.5 -39.5t80 -4z" />
    <glyph glyph-name="C" unicode="C" horiz-adv-x="801" 
d="M1430 -248l9 -2q24 -18 18 -40.5t-30 -38.5t-53 0q-115 71 -275.5 77t-329.5 -29.5t-306 -85.5q-178 -67 -293 -31.5t-154 204.5q-28 146 10.5 331t113 368.5t152.5 325.5q65 122 161 265.5t210.5 270.5t235.5 198q111 60 190.5 39t98 -99.5t-39.5 -190.5
q-34 -63 -62 -90t-53 -27t-35.5 15.5t-11.5 26.5q-1 18 9.5 33.5t26.5 26.5t21 11q11 16 24 48q46 119 -1 150t-157 -42q-118 -85 -226.5 -218.5t-186.5 -258.5q-103 -159 -200.5 -368.5t-151.5 -419t-25 -368.5q21 -96 65.5 -128.5t109.5 -24t146 39.5q156 57 339.5 93
t358 26t292.5 -87z" />
    <glyph glyph-name="D" unicode="D" horiz-adv-x="1527" 
d="M1531 439q28 4 40.5 -14t6 -38t-35.5 -29q-385 -88 -616 -155q-71 -79 -187.5 -185t-249.5 -202t-258.5 -146.5t-215.5 -14.5q-41 17 -51 58t27.5 100t137.5 132q125 381 267 779t293 769q-10 8 -7 25.5t20 31.5t43 7q47 -20 40 -62.5t-26 -80.5q-4 -8 -7 -16
q-275 -692 -497 -1372q114 67 286.5 133.5t326.5 111.5q135 148 266.5 351t183.5 408q43 202 -14.5 336.5t-186.5 193.5t-304 37q-143 -20 -232.5 -76t-128 -126t-36.5 -103t10 -38t10 -13q5 -23 -14 -39t-46 -15.5t-41 22.5q-36 75 12 184.5t185 198.5t366 99
q199 3 338 -89.5t184 -267t-35 -417.5q-59 -168 -160 -326t-201 -276q145 40 507 124zM56 -262l6 -1q65 -35 267 79.5t422 332.5q-96 -30 -254.5 -96t-282.5 -150q-19 -59 -40 -121q-11 -28 -38 -32.5t-44.5 11.5t-15.5 26q-23 -42 -20 -49z" />
    <glyph glyph-name="E" unicode="E" horiz-adv-x="1107" 
d="M1109 341l-10 -3q23 19 48.5 9.5t33 -30t-11.5 -40.5q-247 -237 -520 -439q-109 -81 -234 -141t-234.5 -53.5t-163.5 126.5q-37 101 2 227t116.5 253.5t159 231.5t130.5 161q15 19 24 30q11 13 24 28q24 27 43 53t21.5 38.5t-7.5 13.5q-28 0 -65 -1h-52
q-116 -2 -186 38.5t-44 146.5q36 104 206.5 255t374.5 257q158 77 246 71.5t100.5 -63.5t-40.5 -129q-55 -70 -124 -127q-34 -25 -64.5 -12.5t-38.5 38.5t17 51q10 9 20.5 12t20.5 4q6 1 10.5 2.5t9.5 5.5q19 18 34 34.5t31 37.5q48 63 13.5 64.5t-125.5 -37.5
q-201 -89 -370 -233t-219 -237q-27 -58 11.5 -75t112.5 -16q24 0 47 1q49 3 98 -1q91 -13 88.5 -69.5t-54.5 -126.5q-23 -31 -72 -90q-62 -74 -141 -176.5t-149.5 -216t-106.5 -219.5t-12 -188q25 -69 88.5 -73.5t147.5 31.5t157 84q150 98 307.5 230.5t301.5 261.5z" />
    <glyph glyph-name="F" unicode="F" horiz-adv-x="698" 
d="M1542 1517v0q33 -1 42.5 -22t0 -42t-41.5 -25q-123 -6 -416.5 -25t-553.5 -42q-45 -160 -107 -375q-17 -58 -31 -104q90 10 224.5 20.5t242 15.5t136.5 2q30 -5 39.5 -24t0 -37.5t-11.5 -19.5q6 -3 -170 -10.5t-487 -37.5q-155 -538 -313 -1083q-10 -28 -36.5 -32
t-45 11.5t-14.5 41.5q1 1 6 21q21 80 78 302t113 442.5t71 281.5q-2 0 -12.5 -1t-16.5 -2q-4 0 -9 -0.5t-13 -1.5q-28 -2 -37.5 15t-4.5 34t27 25q48 13 85 18q25 126 15.5 210t-34.5 131t-47 72q-14 17 -20 29q-22 52 10 75.5t75 30.5q43 9 92 16t81 11q27 43 66 84
q18 18 40.5 14.5t34.5 -19t8 -34.5l-8 -28l-1 -2q228 21 517 39t426 25zM284 1339q61 -75 88.5 -156.5t27.5 -64.5q12 40 51 173q3 2 -20.5 19.5t-19.5 34.5q-10 -2 -56 -8t-71 2z" />
    <glyph glyph-name="G" unicode="G" horiz-adv-x="1007" 
d="M770 1463q159 89 269.5 68.5t134 -114t-64.5 -218.5q-24 -29 -52.5 -30.5t-40 17.5t3.5 45q6 7 15 15q8 6 11 10q47 87 31.5 135t-72.5 54.5t-147 -35.5q-143 -72 -269.5 -224t-227 -344.5t-166.5 -385.5t-90 -348q-12 -72 -7.5 -135.5t28 -87.5t73.5 5
q102 63 206.5 177.5t205.5 238.5q82 102 145 172q-13 1 -49 7q-25 6 -28 23.5t7.5 34t36.5 17.5q90 -3 136.5 1t69.5 9q24 4 44 4q29 -1 37.5 -18t2 -35.5t-30.5 -28.5q-24 -8 -61.5 -11.5t-57.5 -4.5q12 0 -30.5 -114t-107 -313.5t-130.5 -449.5q-9 -28 -36 -32.5
t-45.5 11.5t-13.5 41q96 364 198 652q-69 -85 -158 -186t-189 -193q-155 -138 -242.5 -111.5t-104.5 149t23 278.5q56 222 154 466.5t243.5 455.5t345.5 333z" />
    <glyph glyph-name="H" unicode="H" horiz-adv-x="996" 
d="M1273 1481q1 -10 2 -19q4 -23 1.5 -42t-12 -19.5t-52.5 -137t-102 -325.5t-107 -350q35 1 88 1q33 -2 41.5 -23.5t-1.5 -42.5t-43 -23q-62 1 -111 0q-80 -276 -123.5 -451t-70.5 -297q-16 -68 -31 -134q-7 -23 -32 -30t-44 6.5t-16 42.5q35 190 99.5 438t115.5 422
q-285 -9 -573 -52q-110 -357 -154 -510q-42 -148 -80 -261q-10 -24 -34 -28t-40 10t-12 37q21 90 64.5 240t87 293.5t61.5 200.5q-6 -1 -25 -6q-6 -13 -27.5 -18t-65.5 -9q-6 0 -12 -1q-27 -1 -38.5 16t-9.5 36t24 29q70 29 183 48q167 527 255 781q13 36 22 64
q-15 12 -8 37t25 49.5t36 41.5q30 24 56 7.5t20 -53.5q-2 0 -54.5 -159t-123 -374t-121.5 -377q228 34 570 47q40 135 101 332.5t113 360.5t67 203q11 23 32.5 28.5t38.5 -4t20 -25.5z" />
    <glyph glyph-name="I" unicode="I" horiz-adv-x="599" 
d="M1014 1513q4 -20 -12.5 -32.5t-56 -19.5t-108.5 -12q-45 -24 -70 -70.5t-41 -103.5q-7 -23 -66.5 -225.5t-141 -477.5t-153 -516.5t-97.5 -331.5q12 1 58.5 1.5t80.5 -4.5q24 -5 30.5 -24t-3 -38t-41.5 -23q-25 -1 -52 0q-32 2 -99 -1t-201 -23q-28 -2 -41 13.5t-9.5 33
t29.5 26.5q77 22 144 30q87 299 219 745.5t226 751.5l10 32q18 63 40 117.5t48 83.5q-61 -1 -147 9q-27 4 -35 22t1 35.5t38 19.5q41 1 86 1q86 0 191 3q19 7 57 12t74.5 -0.5t41.5 -33.5z" />
    <glyph glyph-name="J" unicode="J" horiz-adv-x="1466" 
d="M1555 471q86 -6 53 -72q-65 -5 -159.5 -19.5t-305.5 -82.5q-150 -296 -363 -507t-409.5 -308.5t-312.5 -82.5q-81 10 -117 59t1 137t172 220q198 185 464.5 332t491.5 213q92 185 136.5 359t32.5 340q-20 199 -106 288.5t-198 97.5t-214 -38.5t-155 -122.5
q-42 -66 -23.5 -122t74.5 -79q3 -1 9 0.5t15 5.5q19 8 39 10q44 1 54 -23t-5 -48.5t-53 -32.5q-112 -12 -177 50.5t-60 157.5t103 188q125 108 264 140.5t261.5 -15t197.5 -175.5t76 -338q-7 -299 -147 -599q270 74 361 67zM183 -501l-4 -1q166 49 326 168t297.5 283
t208.5 298q-186 -58 -439.5 -203.5t-432.5 -328.5q-132 -145 -106.5 -197t150.5 -19z" />
    <glyph glyph-name="K" unicode="K" horiz-adv-x="1202" 
d="M1499 1524l-8 -2q24 15 45.5 2.5t27 -32.5t-12.5 -37q-28 -23 -55 -47q-101 -86 -203 -170q-26 -18 -41 -11q-390 -291 -783 -568q75 -24 134 -102.5t90 -143.5q76 -156 128 -302q40 -109 78.5 -192t87.5 -124q52 -37 113 -8q29 10 47.5 -7t18 -39t-32.5 -37
q-103 -43 -197 15q-71 52 -117 145.5t-89 213.5q-48 135 -119 284q-26 53 -62.5 108.5t-79.5 87.5t-82 26q-148 -515 -296 -1038q-10 -28 -37 -32t-46 11.5t-13 41.5q141 497 285 1003q-13 8 -16.5 30.5t19.5 40.5q7 4 16 10q4 3 6 5q17 58 32 111q66 232 100.5 353.5
t50 179t24.5 97.5q2 9 4 16q-37 -34 -64 -62q-20 -17 -42 -11t-31.5 22t2.5 33q30 42 83.5 87.5t111.5 33.5q45 -19 44.5 -59t-10.5 -74q-2 -7 -4 -13q-5 -23 -12.5 -54.5t-25.5 -95.5t-52 -185t-82 -288q562 399 831 606q116 88 234 171z" />
    <glyph glyph-name="L" unicode="L" horiz-adv-x="702" 
d="M1079 -250l6 -1q33 -14 34.5 -36t-16.5 -39.5t-48 -8.5q-264 95 -523.5 51.5t-463.5 -198.5q-21 -14 -41 -6.5t-29.5 22.5t-5.5 31q123 421 211.5 733.5t185.5 660.5q44 158 95 338q-14 6 -17 42t16 79.5t71 81.5q32 18 55 -1.5t19 -44.5q-133 -501 -505 -1788
q185 115 448 145t508 -61z" />
    <glyph glyph-name="M" unicode="M" horiz-adv-x="1603" 
d="M1465 1509q71 57 120.5 55t43 -81t-72.5 -245q-208 -518 -328.5 -985t-214.5 -1051q-7 -32 -32.5 -40.5t-47 4.5t-19.5 37q94 562 183 930t177.5 624t178.5 480q10 24 19 49q42 107 50 136t7 28.5t-41 -37.5q-162 -151 -325 -394t-299 -505t-218 -469q-13 -28 -44 -32.5
t-48 22.5q-37 74 -47.5 256.5t-11.5 403.5q-1 255 -15 462q-1 6 -1 12q-6 95 -7.5 95.5t-47.5 -106.5q-91 -209 -197.5 -618t-173.5 -891q-4 -23 -25.5 -32t-41.5 0t-19 33q38 347 154.5 825t238.5 748q88 181 145.5 151.5t72.5 -217.5q15 -216 16 -471q2 -155 6.5 -293
t11.5 -180q58 138 203.5 404.5t317.5 513.5t332 378z" />
    <glyph glyph-name="N" unicode="N" horiz-adv-x="1413" 
d="M1467 1567q6 32 31.5 41.5t47 -3t19.5 -35.5q-22 -164 -79.5 -440t-139.5 -571t-177 -518q-130 -293 -269 -320.5t-225 259.5q-63 240 -92 584t-37 548q-58 -210 -197 -676t-243 -760q-10 -25 -33.5 -30t-40 8t-11.5 36q17 55 69 223q92 296 222.5 729.5t218.5 776.5
q8 26 31.5 33t42.5 -4.5t22 -32.5q7 -111 14 -252q15 -314 46.5 -655.5t101.5 -558.5q58 -161 120.5 -134.5t145.5 204.5q102 220 189 532.5t146 596t77 419.5z" />
    <glyph glyph-name="O" unicode="O" horiz-adv-x="1297" 
d="M1351 1077q-7 -224 -88 -475.5t-221.5 -484t-327.5 -400.5q-178 -155 -308 -183t-206.5 45.5t-100.5 211.5q-38 241 47 550.5t237.5 576t320.5 375.5q18 11 44.5 24.5t56.5 15.5t47 -27q9 -17 4.5 -36t-19.5 -34q-26 -22 -56.5 -25t-36.5 0q-120 -83 -256 -310
t-224.5 -504t-76.5 -515q14 -213 117.5 -257t306.5 111q217 173 369.5 436t224.5 538.5t48 485.5q-15 122 -69 203.5t-142 104t-210 -30.5q-147 -65 -335.5 -246.5t-352.5 -463.5q-19 -28 -47 -25.5t-41.5 23t-0.5 44.5q109 195 271.5 383.5t349.5 307.5q208 124 363 99.5
t236 -163.5t76 -355z" />
    <glyph glyph-name="P" unicode="P" horiz-adv-x="909" 
d="M1215 1388q98 -176 48.5 -366.5t-194.5 -361.5t-335 -287q-102 -64 -218.5 -105t-224.5 -42q-123 -376 -239 -762q-10 -28 -37 -32.5t-45 11.5t-12 41q126 418 230 735q-3 2 -14 9t-24 16q-21 15 -19.5 34t19 34.5t45.5 10.5q13 -2 26 -5q119 358 227.5 664t132.5 369
q-20 14 -8 36.5t34 45.5q6 8 13 16q17 19 41 20t37.5 -13.5t10.5 -27t-67.5 -190.5t-153.5 -433t-167 -490q93 5 203 50t207 111q159 107 282.5 259.5t162 318t-54.5 310.5q-84 113 -220 130.5t-275.5 -34.5t-229.5 -146q-43 -48 -55.5 -88.5t-3.5 -66.5q2 -7 7 -8.5
t13 -1.5q5 -1 11 -1q34 -6 39 -29.5t-11 -45.5t-52 -19q-64 9 -91.5 59t-9.5 121.5t96 150.5q78 77 194.5 131.5t245.5 68.5t245.5 -31.5t190.5 -165.5z" />
    <glyph glyph-name="Q" unicode="Q" horiz-adv-x="1301" 
d="M1045 -463q19 22 46 19t39 -22t-3 -41q-64 -83 -163 -114q-123 -32 -228 11.5t-182.5 113.5t-121.5 121l-7 8q-86 -27 -142.5 -7.5t-69.5 60t15 73.5q59 62 122.5 45.5t108.5 -64.5q118 53 246.5 172.5t217.5 252.5q149 228 227 538.5t38 560.5q-36 182 -132.5 227.5
t-222 -6t-246.5 -171.5q-205 -210 -333.5 -509.5t-150.5 -589.5q-21 -247 73 -466q2 -7 5.5 -10t7.5 -6q7 -5 13.5 -12t12.5 -20q10 -26 -5 -45.5t-43 -21t-46 22.5q-98 149 -114.5 341.5t17.5 377.5q35 197 118 406t210 393t293 306q166 118 312.5 123.5t238.5 -109
t103 -348.5q6 -227 -56 -467t-161 -431q-93 -176 -244 -333.5t-319 -243.5q39 -45 101.5 -100t134 -89.5t146.5 -27.5q86 10 144 82zM320 -292q8 -3 32 -2q-6 5 -18 9t-19 2t-5 -4t10 -5z" />
    <glyph glyph-name="R" unicode="R" horiz-adv-x="1000" 
d="M1292 1454q115 -95 131 -242.5t-99 -318.5t-395 -338q-192 -113 -389 -165q65 -74 139 -220.5t138 -302.5t107 -270q5 -13 9 -25q11 -33 -9 -55t-52.5 -22t-47.5 31q-5 17 -3 36q3 17 -6 41q-47 127 -110.5 280t-135 284.5t-139.5 199.5q-44 -8 -71 -9
q-161 -436 -309 -884q-11 -28 -37.5 -32t-44.5 11.5t-11 41.5q145 441 301 865q-19 2 -47.5 17.5t-35.5 47.5q-7 40 34 72.5t109 23.5q24 62 53 136q26 70 87.5 225t123 306t89.5 208q14 24 39 23.5t39.5 -16t10.5 -27t-58.5 -145.5t-134.5 -334.5t-156 -402.5
q28 -12 53 -32q276 64 521 231q221 151 298 297.5t40.5 262t-153.5 177.5q-119 59 -267.5 48.5t-294 -73.5t-252.5 -160q-83 -78 -108 -140t-20 -128q9 0 20 -15t9 -32t-23 -28q-52 -22 -77.5 9t-29.5 68q-6 108 55 200.5t146 159.5q140 113 315.5 174t348.5 51t300 -110z
" />
    <glyph glyph-name="S" unicode="S" horiz-adv-x="1412" 
d="M1409 421q34 12 49 -4t11.5 -36t-26.5 -30q-386 -156 -630 -278q-13 -151 -124.5 -275.5t-263.5 -186.5q-130 -50 -214.5 -38t-88 75.5t97.5 160.5q100 90 241 173.5t252 137.5q-9 109 -105 220.5t-271 268.5q-55 50 -117 108q-104 93 -100.5 193t152.5 223
q161 130 400 255t433 162q197 28 250 -50t-76 -227q-117 -124 -310.5 -257t-343.5 -214q-45 -22 -68.5 -6t-19.5 43.5t37 50.5q22 12 48 13q17 0 30 7q122 75 293 195t267 226q131 158 -76 134q-130 -19 -281 -85.5t-287.5 -149t-221.5 -149.5q-101 -81 -120 -136.5
t13.5 -101t90.5 -94.5q13 -12 27 -24q28 -26 54 -50q178 -159 280.5 -277.5t117.5 -231.5q292 136 600 255zM376 -316q117 42 214.5 137t116.5 199q-83 -40 -208 -114.5t-218 -159.5q-58 -56 -57 -72.5t28.5 -16t66.5 10t57 16.5z" />
    <glyph glyph-name="T" unicode="T" horiz-adv-x="896" 
d="M1739 1494q28 -6 34.5 -27.5t-6.5 -41.5t-51 -16q-406 59 -802 51q-310 -852 -563 -1835q-9 -28 -36 -32t-46 11.5t-14 40.5q225 894 541 1773l-18 14t-16 23q-268 -11 -545 -54q-13 -22 -72.5 -31t-115.5 5q-23 7 -30 24.5t-0.5 35.5t31.5 24q419 81 803 90q21 14 49 19
t42 -17q406 4 815 -57z" />
    <glyph glyph-name="U" unicode="U" horiz-adv-x="1494" 
d="M1586 1474q18 24 44.5 21.5t38.5 -21.5t1 -43q-128 -242 -267 -477q-146 -320 -239.5 -660t-145.5 -686q-6 -27 -31 -37.5t-47.5 0t-20.5 37.5q74 510 205 894q-26 -42 -132.5 -196t-214.5 -279q-97 -113 -203.5 -201t-199.5 -95t-132 128q-24 98 2 254t79 338.5
t111 361.5q87 264 127 440q21 89 15.5 137t-60.5 23q-143 -75 -235 -184.5t-116 -200.5q-8 -31 -6.5 -53.5t9 -37.5t16 -23.5t10.5 -11t8.5 2t23.5 1.5t28 -17t4 -33q-25 -52 -79 -42.5t-90 62.5t-26 138q21 115 120.5 240t239.5 209q129 74 188 46t60 -122.5t-32 -227.5
q-54 -214 -129 -428q-69 -199 -121.5 -396t-56.5 -390q0 -95 33.5 -109t94.5 22.5t135 109.5t143 156q138 172 300 421t273 436q117 255 275 493z" />
    <glyph glyph-name="V" unicode="V" horiz-adv-x="995" 
d="M1496 1732q22 22 47 12.5t31.5 -30.5t-11.5 -42q-271 -286 -552 -671t-519 -801.5t-383 -794.5q-10 -24 -34.5 -30.5t-44 5t-17.5 36.5q12 76 52.5 354.5t88 623.5t80 619.5t28.5 341.5q-2 15 -7.5 12.5t-26 -30.5t-38.5 -58t-23 -43q-12 -23 -36 -27t-39.5 9.5
t-8.5 36.5q29 83 81.5 146t110 73.5t80.5 -73.5q13 -90 -27.5 -436t-93 -714.5t-67.5 -463.5q213 470 588.5 1016t740.5 929z" />
    <glyph glyph-name="W" unicode="W" horiz-adv-x="1701" 
d="M2016 1724q22 26 48.5 21t37.5 -25t-2 -40q-219 -294 -375.5 -585.5t-269 -564t-200.5 -511.5q-27 -71 -52 -138q-102 -263 -182.5 -345t-136 -17.5t-84.5 198.5q-28 139 -46 379.5t-27 404.5q-1 29 -3 51q-1 17 0 41t-35 -32q-115 -162 -258 -411q-92 -158 -174.5 -288
t-137.5 -177q-27 -22 -62.5 -24.5t-50.5 39.5q-15 72 32.5 303t122 514.5t140 514t85.5 295.5q-22 9 -18.5 48t28.5 78t70 52q30 6 47.5 -11.5t11.5 -40.5q-37 -117 -125.5 -429.5t-175 -651.5t-116.5 -533q0 -4 -3.5 -22t-0.5 -14.5t43 64.5q106 167 209 344
q85 145 160.5 265.5t136.5 187.5q58 62 107 54t59 -110q7 -82 13 -198q9 -166 24 -350.5t43 -331.5q30 -155 75.5 -108t136.5 294q9 24 17 44q121 324 242 616.5t274 574.5t372 575z" />
    <glyph glyph-name="X" unicode="X" 
d="M2009 1610q29 15 49 0t21 -37t-23 -38q-320 -194 -595 -431t-528 -507q104 -235 229.5 -477t267.5 -457q11 -19 -1 -39t-39.5 -26t-48.5 23q-138 208 -263 447.5t-219 449.5q-213 -231 -446 -497q-182 -208 -367 -412q-19 -19 -42 -15t-35 19.5t-4 35.5q3 6 5 11
q33 72 73 142q17 26 43.5 21.5t26.5 -3.5q77 87 173 197q265 306 532 594q-39 87 -115 271t-144.5 370t-87.5 286q-3 25 21 43.5t55 2.5q53 -32 67 -91q3 -15 -6.5 -27.5t-13.5 -14.5q24 -80 110 -303.5t188 -458.5q238 251 516.5 488.5t600.5 432.5z" />
    <glyph glyph-name="Y" unicode="Y" horiz-adv-x="1100" 
d="M1306 1503q19 21 45 19t37.5 -20.5t-0.5 -42.5q-12 -21 -22 -38q-287 -494 -547.5 -984.5t-464.5 -1011.5q-12 -27 -39 -31t-45 11.5t-10 41.5q174 445 392.5 873.5t384.5 715.5q-5 -6 -166 -194t-329 -367.5t-297 -281.5q-106 -83 -173 -44.5t-54 211.5
q20 201 98.5 452.5t175.5 459.5q-6 3 -11 16.5t5 29.5q20 30 40 61q44 67 90 133q19 25 44.5 22.5t37 -21t0.5 -40.5q-195 -369 -287.5 -682t-96.5 -476q-5 -84 14 -87.5t104 73.5q237 217 533.5 560t540.5 642z" />
    <glyph glyph-name="Z" unicode="Z" horiz-adv-x="1339" 
d="M1547 -218h1q32 -2 40 -22.5t-3 -41.5t-44 -22q-610 -4 -1016 -37t-498 -50q-40 -4 -53 21t8 50q205 224 446.5 447.5t473.5 427.5q202 178 363 326.5t249 254.5q36 43 64 94.5t32.5 98.5t-29.5 80q-32 28 -159 47.5t-318 -1t-404 -106.5q-14 -32 -55.5 -43.5t-75.5 19.5
q-13 15 -9.5 34t23.5 30q231 108 432 139.5t345 20t203 -31.5q102 -32 130.5 -101t-1 -155.5t-103.5 -176.5q-102 -121 -271 -277t-373 -334q-213 -186 -428.5 -383.5t-381.5 -375.5q307 42 691 57t721 11z" />
    <glyph glyph-name="a" unicode="a" horiz-adv-x="953" 
d="M-23 87q53 34 132 105.5t185 199.5q-6 7 -24 15t-53 -2.5t-96 -65.5q-62 -60 -100.5 -127.5t-49.5 -112.5q-4 -18 -3.5 -18t9.5 6zM265 233q-51 -56 -122 -124q-49 -45 -104 -83t-105 -42.5t-64 56.5q-11 81 62.5 201t169.5 192q63 47 141.5 62t112.5 -32q6 6 29 6
t34.5 -14t7.5 -30q-11 -41 -26 -84q-19 -51 -33 -103t-8 -101q7 -79 80 -70q67 11 177 68.5t400 271.5q26 15 47 2.5t22 -34t-27 -41.5q-212 -168 -391 -265.5t-286 -89.5q-65 10 -93.5 55.5t-30.5 104.5q1 77 7 94z" />
    <glyph glyph-name="b" unicode="b" horiz-adv-x="1012" 
d="M527 1391q-67 -75 -136 -210q-77 -152 -140.5 -314.5t-70.5 -185.5q160 225 252 442q76 179 95 268zM1001 444q29 5 44.5 -14t12 -40.5t-33.5 -30.5q-308 -74 -647 -237q-51 -74 -131 -134t-177 -48q-29 7 -34 30.5t10 41.5q57 53 127 98t136 78q71 117 51.5 167.5
t-61.5 44.5q-77 -20 -156.5 -107.5t-122.5 -161.5q-10 -41 -19 -84q-9 -28 -35.5 -32t-46 11.5t-14.5 41.5q26 117 87 329t145.5 445t181.5 415t198 237q25 13 52.5 -0.5t36 -58t-12.5 -131.5q-37 -148 -160.5 -381t-328.5 -482q-21 -73 -25 -87q3 4 66.5 58t138.5 69
q60 8 107.5 -22t63 -88.5t-5.5 -115.5q235 107 553 189z" />
    <glyph glyph-name="c" unicode="c" horiz-adv-x="739" 
d="M735 430q23 15 45 2.5t25.5 -33.5t-22.5 -41q-32 -23 -65 -47q-86 -59 -212.5 -145.5t-238.5 -145.5q-73 -40 -158 -53t-149 51q-45 53 -41 127.5t40.5 148t91.5 125.5q98 87 168.5 79t90.5 -59.5t-23 -93.5q-24 -19 -45.5 -11t-27 26t8.5 34q1 12 -9 14.5t-29 -4.5
q-60 -26 -102.5 -84.5t-58 -122.5t1.5 -104q14 -31 53.5 -38.5t119.5 29.5q140 71 301.5 182.5t203.5 141.5q19 14 31 22z" />
    <glyph glyph-name="d" unicode="d" horiz-adv-x="673" 
d="M-37 64q3 -1 8 -2q11 -3 50.5 25.5t82.5 74t66 72.5q60 71 102 129q5 4 -9 16q-41 40 -93 18.5t-102 -78.5q-31 -34 -63.5 -86t-46.5 -100t5 -69zM883 1508q13 8 32.5 5.5t29.5 -18.5t7 -43q-15 -86 -114 -280.5t-205 -381.5t-143 -249q-128 -380 -165 -774
q-4 -27 -29 -37.5t-47.5 0t-22.5 37.5q27 295 84 504q-50 -76 -177 -202q-40 -42 -102 -77t-124 -3q-67 45 -48.5 133.5t81.5 179t135 143.5q69 49 136 48t119 -46q21 30 57 88q42 134 127.5 341t184 389t184.5 243z" />
    <glyph glyph-name="e" unicode="e" horiz-adv-x="789" 
d="M183 409q-24 -8 -58 -35q-45 -36 -57 -50q6 1 47 24q48 29 60 46q4 7 8 15zM803 418q24 20 47 11t29 -29t-11 -40q-91 -94 -236.5 -196.5t-301.5 -162t-277 -20.5q-121 52 -130 175t95 239q42 44 95 71t99.5 18.5t55.5 -67.5q4 -61 -70 -118t-166 -52q-30 -81 5.5 -139
t137.5 -54q99 8 215 67t224 140.5t189 156.5z" />
    <glyph glyph-name="f" unicode="f" horiz-adv-x="817" 
d="M846 472q27 10 43 -6t13.5 -37t-33.5 -37q-155 -67 -324 -99.5t-299 -32.5q2 -113 -79 -323t-184.5 -411.5t-169.5 -299.5q-35 -49 -80 -56.5t-48 51.5q5 88 100 404t231 683q-30 30 -14.5 66.5t58.5 49.5q26 70 80.5 197.5t120.5 248.5t129 178q70 55 105 22.5t5 -126.5
q-47 -126 -150 -291.5t-168 -249.5q29 -19 44 -53q124 -3 297.5 27.5t322.5 94.5zM263 677q122 214 119.5 223t-119.5 -223zM-212 -658q47 94 139 279t160.5 368.5t58.5 274.5q-26 2 -45 6q-82 -217 -167.5 -482.5t-145.5 -445.5z" />
    <glyph glyph-name="g" unicode="g" horiz-adv-x="826" 
d="M-144 79q37 23 92 74q79 73 151 147q54 55 75 73q-30 24 -99 -23.5t-137 -133.5q-57 -73 -82 -137zM-383 -909q89 64 181 210t167.5 306.5t96.5 214.5q-45 -43 -156 -167t-205 -257.5t-135 -251.5q-18 -55 -8.5 -71t59.5 16zM828 429q27 15 48.5 0t24 -36.5t-21.5 -38.5
q-376 -140 -654 -380q-46 -131 -121 -301t-167.5 -330.5t-192.5 -263.5q-82 -82 -159 -98.5t-112.5 34.5t-1.5 157q66 184 251.5 414.5t416.5 436.5q24 65 49 148t31 117q-29 -26 -87 -87q-96 -105 -210 -188q-69 -45 -121.5 -35t-51 72t73.5 170q99 139 188 195t155.5 50
t78.5 -38q21 12 49.5 -5t32.5 -59q1 -51 -20 -130.5t-23 -87.5q219 166 544 284z" />
    <glyph glyph-name="h" unicode="h" horiz-adv-x="1127" 
d="M1113 409q19 18 44.5 14.5t34.5 -24t-11 -45.5q-101 -99 -339 -242t-321.5 -133t-111 50.5t-32.5 83.5q-8 98 13 196q6 35 11 68q7 46 3 63t-27 8q-77 -33 -192 -178.5t-173 -314.5q-4 -11 -9 -40q-7 -31 -32.5 -39.5t-46.5 4.5t-19 36q66 369 190.5 699.5t258 562.5
t227.5 305q60 42 90.5 18.5t28.5 -69.5q-12 -104 -121.5 -298t-237 -383t-194.5 -276q-48 -139 -61 -192q1 1 91 104.5t186 140.5q39 12 75.5 0.5t52.5 -47.5q12 -32 10 -67.5t-8 -69.5q-1 -7 -1 -13q-2 -12 -4 -25q-8 -47 -13.5 -97t1.5 -89q13 -59 89 -47t261.5 128
t286.5 208zM474.5 1202.5q-79.5 -134.5 -146.5 -278.5t-68 -148q169 265 252.5 416t62.5 148t-100.5 -137.5z" />
    <glyph glyph-name="i" unicode="i" horiz-adv-x="606" 
d="M598 391q25 19 49 7.5t30.5 -32.5t-12.5 -40q-82 -70 -212 -152.5t-224 -133.5q-85 -47 -141 -64.5t-100 2.5q-55 28 -63.5 93.5t8 142t44 140.5t51.5 91q28 24 53.5 8t27.5 -40q1 -37 -26 -59q-32 -62 -53 -150t-5 -135q7 -14 36.5 -7.5t74 28t78.5 42.5q13 7 22 12
q78 49 184.5 117.5t177.5 129.5zM71 526q-17 6 -23.5 18t-4.5 24q9 30 43 31q11 1 14.5 2t5.5 2q5 2 14 4q20 5 34.5 -4.5t19.5 -23.5q8 -29 -20 -46q-19 -11 -42 -12.5t-41 5.5z" />
    <glyph glyph-name="j" unicode="j" horiz-adv-x="602" 
d="M591 443q28 15 49 -0.5t23.5 -37t-21.5 -37.5q-381 -233 -734 -551q-66 -176 -172 -401t-231 -369q-39 -45 -93 -77.5t-121 -23.5q-121 20 -91 153q36 116 151 264t248.5 284.5t222.5 216.5q102 270 177 532q-5 11 -1 21.5t13 22.5q3 4 5 8q16 23 39.5 23t37 -16
t11.5 -37q-3 -25 -42 -156.5t-86 -261.5q266 229 615 443zM-596 -921q70 65 138.5 180t125.5 238.5t73 162.5q-71 -67 -209 -224.5t-213 -300.5q-37 -83 -4 -93.5t89 37.5zM57 545q-18 2 -30 12.5t-12 25.5t12 26t30 12q16 2 32 6q7 1 13 3q20 3 35.5 -5t20.5 -24
q3 -16 -5 -28t-24 -19q-35 -13 -72 -9z" />
    <glyph glyph-name="k" unicode="k" horiz-adv-x="892" 
d="M603 1350q-111 -119 -207 -292q-112 -204 -149 -301q44 63 173 274q106 175 183 319zM887 184q30 11 46.5 -5t14 -36.5t-30.5 -31.5q-150 -48 -310 -49t-292 23t-185 45q-68 -96 -128 -210q-3 -14 -6 -29q-7 -32 -33 -40t-46.5 5.5t-18.5 35.5q103 513 251 864.5t291 542
t234 215.5q20 5 37 -4.5t20 -26.5q4 -61 -93.5 -247t-236 -400.5t-256.5 -360.5q-32 -97 -50 -166q-12 -8 34.5 12.5t93.5 38.5q32 31 91.5 75.5t124 75.5t113.5 18q29 -10 29.5 -42t-48.5 -70q-59 -43 -123.5 -72.5t-131.5 -55.5q-14 -6 -24 -10q-37 -37 -66 -72
q162 -51 377 -56.5t322 33.5z" />
    <glyph glyph-name="l" unicode="l" horiz-adv-x="859" 
d="M848 394q28 22 52.5 11t30.5 -32.5t-11 -37.5q-103 -92 -340 -271t-368 -224q-119 -37 -187 8.5t-79 157.5q-13 207 82 488t237.5 527.5t273.5 352.5q45 33 94 37t63.5 -40.5t-27.5 -140.5q-55 -121 -167 -300t-228.5 -340.5t-183.5 -226.5v0v-3q-23 -81 -40.5 -201.5
t5.5 -200.5q16 -41 49 -45.5t79 11.5q119 42 344.5 214t320.5 256zM394.5 1051q-147.5 -236 -223.5 -443q216 315 316.5 481t77.5 182t-170.5 -220z" />
    <glyph glyph-name="m" unicode="m" horiz-adv-x="1295" 
d="M1319 370q25 20 48.5 8.5t28 -32.5t-15.5 -41q-160 -141 -349 -237q-88 -47 -173.5 -60.5t-161.5 45.5q-55 50 -76 116t-29 124q-7 54 -14 68q-21 -6 -71.5 -56.5t-97.5 -105.5q-56 -67 -85 -88q-30 -14 -48.5 2t-16.5 36q0 4 1 7q4 35 10.5 90.5t9 105.5t2.5 52
q-25 -15 -88 -102t-120 -181t-84 -143q-16 -26 -41.5 -28.5t-41 12.5t-11.5 35q36 152 84 292t92 238q13 24 37 25.5t38 -13t7 -36.5q-54 -151 -65 -186q75 103 134 153t114 24q32 -21 38.5 -66t0.5 -127q79 82 129.5 118t98.5 32q39 -6 54.5 -33.5t21.5 -56.5q6 -30 11 -61
q8 -52 22.5 -99.5t50.5 -78.5q38 -34 94.5 -27t168.5 70q156 85 293 205z" />
    <glyph glyph-name="n" unicode="n" horiz-adv-x="1041" 
d="M1065 343q25 18 47 6.5t26 -32t-15 -38.5q-93 -85 -227 -173t-255 -117q-104 -20 -177 20t-106 126q-22 61 -32 131q-10 72 -18 86q-26 -15 -105 -104.5t-154 -185t-105 -136.5q-20 -24 -44.5 -21t-36 20.5t-5.5 38.5q30 77 57 156q38 108 80 214.5t62 135.5
q14 22 38 23.5t37.5 -13.5t5.5 -36q-47 -114 -88 -232q80 94 138.5 152.5t100.5 77.5q49 16 77.5 -10t38.5 -61q12 -44 19 -90q7 -47 19 -91q47 -152 206 -110q94 29 191.5 95.5t224.5 167.5z" />
    <glyph glyph-name="o" unicode="o" horiz-adv-x="908" 
d="M952 434q27 9 44.5 -8t12 -40t-138.5 -90t-308.5 -86.5t-280.5 28.5q-29 -124 -115.5 -219.5t-162.5 -101.5q-97 4 -102.5 117t76.5 264q64 105 132.5 140.5t77 33.5t24 8t36 6t27.5 -23q19 -60 19 -120q52 -50 165.5 -53t238 28.5t255.5 115.5zM75 52q45 44 79.5 111.5
t40.5 142.5q-17 10 -26 31q-10 20 7 45q-59 -24 -115.5 -123t-62.5 -204q-1 -50 15.5 -48.5t61.5 45.5z" />
    <glyph glyph-name="p" unicode="p" horiz-adv-x="1121" 
d="M1131 420v0q29 1 41 -19t5 -41.5t-43 -27.5q-329 -50 -684 -182q-51 -54 -126.5 -106t-159.5 -63q-38 0 -45.5 26.5t6.5 46.5q50 59 123.5 100.5t142.5 68.5q79 86 88.5 135t-13.5 50q-27 -1 -55 -14t-53 -32q-108 -78 -188 -192.5t-137 -246t-99 -261.5
q-65 -204 -122 -410q-17 -58 -33 -116q-10 -28 -36.5 -32t-45.5 12t-14 41q16 64 66.5 258.5t110 423.5t103.5 396.5t45 174.5q-9 11 -4 30.5t24.5 34.5t52.5 8q21 -6 28 -20.5t5 -29.5q-8 -45 -40 -159q-24 -86 -36 -130q29 53 140.5 183.5t242.5 164.5q108 19 146.5 -52
t-14.5 -158q253 91 578 138z" />
    <glyph glyph-name="q" unicode="q" horiz-adv-x="1039" 
d="M1061 392q29 13 49 -2t20.5 -36.5t-24.5 -37.5q-98 -53 -282 -153.5t-360.5 -199.5t-249.5 -146q-27 -68 -53 -133q64 -29 94 -82.5t1.5 -142.5t-129.5 -235q-31 -45 -81 -106.5t-106 -100t-89 14.5q-14 33 14 131.5t72.5 216.5t82.5 211q12 30 19 48q-17 8 -40 18
q-25 12 -49 24q-24 14 -20.5 37t23.5 37q88 57 174 107q94 232 172 422l-44 -38q-78 -68 -159.5 -131.5t-156 -94.5t-121.5 11q-39 43 -12 113t89.5 143t135.5 126q78 59 162.5 76.5t158.5 -41.5q17 -17 19.5 -11t29 1.5t35.5 -22t4 -32.5q-10 -24 -17 -45q-8 -21 -24 -62
t-50 -126.5t-85 -209.5q66 39 132 79q64 38 136.5 80t193.5 109.5t335 182.5zM-16 141q100 70 199 158q68 60 108 91q-53 33 -123.5 1.5t-128.5 -85.5q-44 -40 -84 -91t-59 -105q-5 -17 1.5 -17t33 14.5t53.5 33.5zM72 -690q75 116 91 174.5t-1.5 81t-36.5 29.5
q-4 -12 -16 -41q-43 -107 -87 -224t-58 -168q42 44 108 148z" />
    <glyph glyph-name="r" unicode="r" horiz-adv-x="1001" 
d="M1065 381q4 -24 -11.5 -40.5t-108.5 -64t-231.5 -71t-271.5 5.5q-92 21 -129 80t-39 124q-54 -57 -161.5 -235t-163.5 -283q-16 -25 -41.5 -23.5t-39.5 18t-8 38.5q87 243 117 330q18 50 26.5 74.5t13.5 37.5t11 28q-3 5 -2 14t9 23t24 40q16 22 39.5 21t36.5 -16.5
t7 -35.5l-23 -77q50 68 106.5 125.5t108.5 49.5q28 -7 33 -23.5t4 -41.5q-2 -33 9 -92q14 -56 60.5 -78.5t122.5 -27t209.5 26t230.5 104.5q25 8 42 -4t20 -27z" />
    <glyph glyph-name="s" unicode="s" horiz-adv-x="926" 
d="M921 474h-2q32 4 47.5 -15t12 -41t-34.5 -30q-192 -37 -390 -106t-361 -166q-15 -91 -78.5 -167.5t-138.5 -111t-113 12.5q-32 54 9 115.5t109 116t116 83.5q-3 35 -24 61.5t-54 50.5q-37 27 -63.5 64t3.5 85q40 50 102.5 75.5t123.5 31.5q22 2 36.5 -13t13.5 -31
q-4 -32 -26.5 -48.5t-50 -21t-44.5 -3.5t-23 0q-8 -4 -24.5 -15.5t-22.5 -20.5q19 -21 47 -43q31 -23 58.5 -54.5t36.5 -64.5q125 71 315.5 140.5t419.5 115.5zM-64 -83q28 11 69.5 50.5t50.5 57.5q-89 -81 -120 -108z" />
    <glyph glyph-name="t" unicode="t" horiz-adv-x="449" 
d="M862 1011h2q31 -4 40.5 -25.5t0 -42.5t-43.5 -21q-308 19 -621 13q-116 -416 -243 -913.5t-172 -681.5q-9 -28 -35.5 -32.5t-46 11.5t-14.5 41q54 220 177 700.5t232 872.5q-250 -8 -361 -18q-61 -5 -96 -6t-56 6t-34 26q-23 29 -4 49.5t52 39.5q11 6 23 14
q23 13 42.5 2.5t23.5 -28.5t5 -17q189 16 430 22q37 129 60 205t38 116.5t31 71.5q13 22 38 23.5t43.5 -14t19.5 -41.5q-1 -17 -9.5 -36t-19.5 -34t-16 -18q-39 -117 -83 -271q290 4 597 -14z" />
    <glyph glyph-name="u" unicode="u" horiz-adv-x="1026" 
d="M1043 373q21 17 43.5 8t27.5 -26.5t-12 -35.5q-97 -83 -246.5 -186.5t-270.5 -161.5q-53 -27 -117.5 -39.5t-115.5 29.5q-51 52 -43.5 139.5t14.5 108.5q-124 -139 -197 -194.5t-135 -44.5q-66 22 -62 106.5t35 178t56 142.5q-6 16 5.5 41t38.5 41.5t61 -0.5
q13 -7 17.5 -20t-0.5 -25q-38 -78 -75.5 -176.5t-41.5 -184.5q-1 -18 4.5 -19.5t43.5 24.5q94 72 195.5 192t149.5 193q16 21 40 20.5t37 -15t7 -34.5q-6 -16 -13 -35q-30 -75 -59 -174t-19 -172q7 -40 45.5 -38t140.5 54q117 62 239.5 146.5t206.5 157.5z" />
    <glyph glyph-name="v" unicode="v" horiz-adv-x="1058" 
d="M1125 466q33 9 46 -10t7 -41t-36 -34q-96 -31 -239 -50t-282.5 -13t-207.5 41q-39 -77 -126.5 -229t-160.5 -232q-47 -47 -90.5 -39.5t-50.5 75.5q-5 86 17 229t55 265q8 26 30 36.5t42.5 2t24.5 -29.5q1 -11 0 -31t-6 -39.5t-15 -26.5q-17 -75 -36 -197t-15 -165
q21 22 106 164t161 295q10 19 33.5 30.5t45.5 -4.5q65 -48 195 -56t270 10t232 49z" />
    <glyph glyph-name="w" unicode="w" horiz-adv-x="1233" 
d="M239 32q-17 -31 -36 -64q-36 -65 -79.5 -112t-97.5 -48q-62 5 -72 54t-4 94q5 62 26 157t67 260q-4 22 6.5 45.5t43.5 33.5q34 8 47 -10.5t9 -39.5q-3 -13 -15 -55q-26 -92 -58 -228t-28 -210q0 -6 3.5 -3.5t21.5 28.5q47 68 98.5 170.5t87.5 179.5q9 19 31 27.5t41 1
t22 -29.5q5 -103 -7 -182q-7 -48 -7 -85q1 -32 7.5 -30t33 36.5t51.5 80.5q36 62 69 154t21 152q-5 20 10.5 35t39.5 18.5t39 -12.5q32 -33 125 -42.5t210.5 -3t217.5 19.5t143 23q30 5 41 -12t5.5 -36.5t-33.5 -27.5q-101 -22 -235.5 -40.5t-265 -18.5t-197.5 24
q-5 -36 -37.5 -124t-89.5 -180q-21 -35 -51 -70.5t-70 -55.5q-81 -31 -107 11t-27 115z" />
    <glyph glyph-name="x" unicode="x" horiz-adv-x="1259" 
d="M1259 396q28 19 51 9t25.5 -30.5t-20.5 -40.5q-139 -107 -320.5 -215t-364 -162t-317.5 4q-119 62 -161 162q-54 -62 -94 -116q-28 -38 -62 -80q-19 -20 -41 -20t-32 13.5t-1 32.5q35 65 92 137t104 122q-20 57 -31 125.5t8 133.5q13 36 45 41t54.5 -13t21.5 -48
q-2 -17 -15 -29.5t-18 -13.5q-1 -46 18 -108q96 100 232 201q30 20 53 10t25.5 -30.5t-21.5 -39.5q-143 -106 -260 -231q24 -64 68.5 -113.5t112.5 -70.5q110 -27 267.5 32t314.5 156t266 182z" />
    <glyph glyph-name="y" unicode="y" horiz-adv-x="1087" 
d="M1112 403q23 8 40 -9t14.5 -39t-34.5 -36q-432 -172 -753 -391q-61 -156 -156.5 -338t-212.5 -338t-243 -236q-102 -59 -176 -31.5t-56 139.5q26 116 140 270.5t279.5 310.5t342.5 275q71 183 108 318l-20 -23q-102 -120 -231 -230q-126 -97 -186.5 -64t-52.5 121
q13 115 65.5 222t100.5 154q19 17 41.5 14t33.5 -18t4 -34q-3 -8 -6 -15q-7 -19 -15.5 -32t-20.5 -16q-35 -52 -75 -142.5t-35 -152.5q5 -33 75 20q66 52 141 132t194 216q20 23 53 30.5t51 -17t4 -83.5q-44 -174 -94 -312q304 193 680 335zM-258 -894q120 87 257.5 293
t232.5 424q-205 -152 -367.5 -336.5t-217.5 -323.5q-24 -65 -12.5 -82t40 -9.5t67.5 34.5z" />
    <glyph glyph-name="z" unicode="z" horiz-adv-x="1474" 
d="M1472 420q29 12 44.5 -5t10.5 -38.5t-36 -38.5q-338 -172 -613 -344.5t-474 -311.5q-105 -120 -300.5 -310.5t-328.5 -275.5q-15 -9 -34.5 -7.5t-30 16.5t-4.5 44q25 87 149 205.5t266 226.5t218 162q75 87 124 160.5t44.5 112.5t-81.5 37q-89 -6 -201.5 -43.5
t-190.5 -84.5q-29 -16 -48 -3.5t-20.5 32.5t17.5 37q136 112 291 219q100 71 179 131.5t104 90.5q-23 0 -88.5 -15t-134.5 -35q-87 -25 -160 -39.5t-106 3.5q-35 27 -16 62.5t54.5 66t60.5 44.5q25 13 48.5 2.5t19 -37t-23.5 -46.5q31 7 104 28q118 35 234 52q100 9 115 -32
t-19 -86q-17 -22 -44.5 -47t-82 -65.5t-150.5 -110.5q-55 -40 -79 -57q1 0 69 13t133 7q123 -16 122 -95t-45 -145q88 60 344 216.5t560 303.5z" />
    </font>
</defs>
</svg>
