<?xml version="1.0" standalone="no"?>
<!DOCTYPE svg PUBLIC "-//W3C//DTD SVG 20010904//EN"
 "http://www.w3.org/TR/2001/REC-SVG-20010904/DTD/svg10.dtd">
<svg version="1.0" xmlns="http://www.w3.org/2000/svg"
 width="900.000000pt" height="900.000000pt" viewBox="0 0 900.000000 900.000000"
 preserveAspectRatio="xMidYMid meet">
<metadata>
Created by potrace 1.14, written by Peter Selinger 2001-2017
</metadata>
<g transform="translate(0.000000,900.000000) scale(0.100000,-0.100000)"
fill="#000000" stroke="none">
<path d="M1733 5739 c-184 -32 -349 -160 -361 -279 -4 -44 -2 -52 26 -80 36
-35 76 -40 92 -10 13 25 6 38 -26 50 -64 25 16 143 139 206 52 27 57 24 28
-13 -11 -13 -18 -30 -15 -37 2 -6 -20 -79 -50 -161 -29 -83 -89 -252 -131
-377 -72 -211 -79 -227 -103 -230 -14 -2 -30 -11 -36 -21 -9 -15 -7 -22 12
-37 l23 -19 -87 -276 c-70 -226 -83 -279 -73 -291 7 -8 22 -14 33 -12 17 2 27
22 54 108 161 509 150 480 180 480 87 0 262 74 372 158 139 105 238 225 294
357 26 60 30 83 31 161 0 85 -2 96 -35 160 -38 75 -103 133 -168 152 -57 16
-142 21 -199 11z m205 -88 c88 -45 140 -152 128 -265 -17 -168 -191 -387 -397
-500 -104 -57 -229 -94 -229 -68 0 13 127 387 209 616 50 138 69 202 61 210
-16 16 -12 24 18 29 58 11 169 -1 210 -22z"/>
<path d="M5021 5602 c-10 -20 -33 -87 -51 -147 -17 -61 -35 -113 -38 -117 -4
-4 -74 -11 -156 -16 -146 -9 -150 -9 -167 12 -17 21 -17 21 -54 2 -44 -24 -57
-46 -42 -67 21 -27 43 -29 217 -17 93 6 173 8 177 5 3 -4 -16 -88 -42 -188
-56 -206 -36 -180 -228 -308 -125 -84 -249 -151 -278 -151 -43 0 -59 18 -59
66 0 58 19 99 69 152 45 47 68 53 73 20 4 -33 42 -36 63 -5 19 29 7 70 -24 86
-52 28 -112 3 -197 -83 -64 -65 -182 -146 -280 -193 -61 -29 -89 -36 -139 -37
-71 -1 -99 16 -110 65 -11 47 1 67 45 74 50 9 113 54 129 94 12 26 11 34 -3
56 -22 33 -51 32 -161 -5 -110 -37 -205 -57 -315 -65 -80 -7 -86 -6 -98 15
-12 20 -7 31 58 130 133 204 190 339 160 375 -58 70 -183 -101 -310 -425 -31
-79 -129 -131 -275 -146 -128 -13 -195 27 -195 117 0 94 -52 102 -133 19 -30
-31 -46 -42 -42 -29 8 23 -10 49 -34 49 -9 0 -34 -21 -56 -46 -50 -57 -199
-171 -285 -218 -83 -45 -176 -71 -223 -62 -48 9 -79 49 -75 95 3 33 6 36 56
51 70 20 122 68 122 113 0 40 -15 57 -51 57 -64 0 -136 -54 -176 -133 -21 -42
-24 -61 -21 -109 5 -62 27 -96 80 -124 35 -18 144 -18 195 0 78 27 194 90 264
143 39 29 72 53 74 53 3 0 -16 -57 -40 -126 -35 -100 -43 -130 -33 -141 28
-34 52 -10 143 143 105 175 155 246 155 221 0 -10 9 -36 21 -58 15 -30 32 -46
64 -60 81 -36 273 -23 387 25 13 6 2 -35 -48 -181 -85 -246 -164 -524 -164
-579 0 -40 2 -44 25 -44 34 0 62 30 115 120 111 190 238 488 262 613 l12 66
66 6 c64 7 179 27 232 40 l28 7 -15 -36 c-32 -76 -9 -161 54 -203 77 -52 238
-19 396 81 l70 45 7 -42 c17 -91 77 -127 174 -101 69 18 132 52 277 151 59 40
109 73 112 73 2 0 -12 -57 -31 -127 -19 -71 -59 -227 -89 -347 -58 -234 -59
-250 -6 -244 25 3 28 10 117 368 94 376 194 753 213 804 l12 29 232 -5 c128
-3 238 -3 245 -1 17 7 15 38 -4 54 -13 11 -70 15 -235 18 -121 2 -219 7 -219
12 0 21 54 177 71 205 23 38 24 58 3 78 -26 27 -52 19 -73 -22z m-2971 -740
c0 -4 -15 -16 -32 -26 l-33 -17 30 25 c33 29 35 30 35 18z m1795 -17 c-16 -14
-34 -25 -40 -25 -5 0 4 11 20 25 17 13 35 24 40 24 6 0 -3 -11 -20 -24z m-539
-89 c8 -21 -23 -141 -63 -241 -39 -99 -174 -387 -179 -382 -2 2 23 86 56 188
132 409 165 489 186 435z"/>
<path d="M5172 5010 c-30 -12 -25 -44 7 -48 43 -7 73 7 69 31 -3 25 -38 32
-76 17z"/>
<path d="M7118 4956 c-77 -21 -138 -75 -125 -110 4 -11 -25 -38 -91 -87 -158
-116 -244 -151 -307 -125 -42 18 -58 49 -79 150 -18 90 -36 116 -79 116 -23 0
-46 -16 -109 -77 l-80 -78 31 84 c23 63 28 88 20 98 -17 20 -37 16 -55 -13
-56 -85 -356 -156 -454 -106 -29 14 -36 24 -42 62 -10 61 -28 72 -81 54 -23
-8 -62 -30 -87 -49 -80 -62 -283 -196 -342 -226 -67 -34 -94 -36 -101 -10 -8
30 13 121 40 179 26 54 25 78 -2 88 -36 14 -83 -69 -105 -183 -15 -74 -7 -126
22 -153 45 -42 125 -18 297 89 45 28 84 51 86 51 2 0 -1 -15 -6 -32 -17 -61
-11 -117 16 -143 32 -32 61 -31 116 4 46 29 124 131 135 178 5 17 11 22 23 17
65 -27 260 -10 364 31 31 12 57 20 57 17 0 -3 -21 -62 -46 -130 -36 -98 -43
-126 -34 -138 25 -30 49 -14 127 84 118 148 194 233 204 226 5 -3 9 -15 9 -27
0 -45 31 -142 57 -175 80 -105 237 -75 452 88 l94 71 28 -27 c16 -15 29 -36
29 -45 0 -10 -22 -33 -49 -53 -62 -46 -119 -108 -127 -141 -8 -32 19 -75 47
-75 33 0 93 36 135 82 35 38 49 63 68 120 13 41 287 154 479 198 102 24 123
38 94 68 -14 14 -24 14 -84 3 -92 -17 -300 -85 -401 -132 l-83 -38 -55 57
c-50 51 -53 58 -37 69 9 7 27 13 39 13 60 0 105 50 68 77 -21 15 -16 15 -76
-1z m-1449 -186 c1 -37 -32 -102 -74 -149 -52 -58 -69 -55 -61 9 9 66 36 128
77 174 l32 38 13 -24 c7 -13 13 -34 13 -48z"/>
<path d="M7007 3519 c-53 -13 -117 -46 -155 -83 -54 -50 -75 -101 -80 -192 -8
-152 37 -237 156 -296 62 -31 73 -33 172 -33 117 0 218 19 227 42 3 8 1 18 -5
22 -11 6 -16 50 -13 118 1 36 4 42 32 52 18 6 29 16 27 23 -3 10 -41 14 -136
16 -124 2 -132 1 -132 -16 0 -15 10 -21 42 -26 61 -10 68 -20 68 -90 0 -87
-13 -101 -87 -99 -111 2 -193 60 -227 161 -18 51 -21 170 -6 221 14 51 50 97
95 123 74 42 226 24 253 -30 5 -9 12 -34 16 -54 5 -28 12 -38 26 -38 15 0 20
10 25 48 3 26 8 63 11 83 l5 36 -76 12 c-87 13 -183 13 -238 0z"/>
<path d="M7595 3518 c-104 -39 -146 -143 -92 -230 25 -42 46 -59 137 -113 88
-53 110 -79 110 -127 0 -28 -7 -46 -26 -65 -23 -23 -31 -25 -85 -21 -70 5 -98
26 -131 100 -23 51 -25 53 -46 39 -14 -8 -11 -42 9 -123 9 -35 14 -39 66 -54
156 -45 303 32 303 161 0 85 -28 115 -179 195 -72 39 -93 64 -94 116 -1 29 5
42 32 66 30 27 39 30 79 24 57 -8 81 -29 88 -78 5 -28 11 -38 25 -38 14 0 19
11 24 48 3 26 7 57 9 69 2 13 -3 25 -13 28 -31 12 -186 15 -216 3z"/>
<path d="M2825 3502 c-8 -20 -7 -21 29 -28 19 -3 41 -13 50 -23 16 -18 57
-153 116 -381 36 -143 37 -145 66 -148 29 -3 29 -2 74 125 24 70 58 166 76
212 l31 84 20 -54 c11 -30 44 -125 74 -212 53 -157 53 -158 82 -155 28 3 30 8
106 238 43 129 85 249 94 267 20 37 71 58 120 48 58 -13 57 -9 57 -251 0 -247
-2 -254 -64 -254 -34 0 -57 -15 -50 -34 3 -8 74 -11 240 -11 220 0 236 1 250
19 18 25 46 124 39 136 -9 15 -45 12 -45 -3 0 -8 -14 -33 -30 -55 l-30 -42
-100 0 c-76 0 -102 3 -106 14 -3 7 -6 55 -7 107 l-2 94 54 3 c79 5 100 -3 117
-44 11 -25 20 -34 30 -30 9 3 18 6 20 6 2 0 4 43 4 96 0 93 -1 95 -22 92 -15
-2 -24 -11 -26 -26 -5 -33 -34 -43 -110 -40 l-67 3 -3 80 c-5 130 -8 126 101
123 l92 -3 15 -42 c9 -28 20 -43 31 -43 14 0 19 13 24 65 4 36 8 67 9 70 0 3
-155 7 -346 8 -266 2 -349 -1 -352 -10 -6 -15 7 -24 48 -33 29 -6 31 -9 30
-51 0 -42 -78 -325 -94 -342 -8 -9 -32 55 -104 268 l-43 130 -33 0 -33 0 -64
-190 c-36 -104 -68 -194 -72 -198 -5 -5 -15 18 -24 50 -48 184 -77 299 -77
310 0 7 18 17 41 23 27 8 39 16 37 26 -4 21 -265 26 -273 6z"/>
<path d="M4294 3511 c-13 -14 1 -30 33 -38 61 -14 64 -30 61 -264 -2 -148 -7
-210 -16 -221 -7 -9 -31 -18 -53 -22 -31 -5 -40 -10 -37 -24 3 -15 21 -17 162
-20 118 -2 174 1 219 13 159 41 245 158 235 318 -8 115 -60 192 -163 238 -46
21 -65 23 -243 23 -107 1 -196 -1 -198 -3z m366 -62 c88 -40 130 -104 138
-210 8 -119 -41 -220 -125 -255 -61 -26 -162 -15 -185 20 -10 14 -10 450 -1
459 15 15 129 6 173 -14z"/>
<path d="M4984 3511 c-13 -14 1 -30 33 -38 61 -14 64 -30 61 -264 -2 -148 -7
-210 -16 -221 -7 -9 -31 -18 -53 -22 -31 -5 -40 -10 -37 -24 3 -15 21 -17 183
-17 146 0 189 4 230 18 74 26 136 76 170 138 27 49 30 62 30 149 0 78 -4 102
-22 135 -29 55 -78 100 -138 126 -46 21 -65 23 -243 23 -107 1 -196 -1 -198
-3z m366 -62 c87 -39 129 -103 138 -205 9 -115 -29 -205 -106 -251 -51 -31
-148 -32 -186 -2 l-26 20 0 223 c0 122 3 226 7 229 15 15 129 6 173 -14z"/>
<path d="M5674 3511 c-14 -15 2 -31 38 -38 37 -7 44 -13 49 -38 9 -40 9 -394
0 -424 -7 -26 -22 -37 -64 -46 -19 -4 -27 -11 -25 -22 3 -14 22 -16 143 -16
131 0 140 1 140 19 0 14 -10 20 -39 25 -21 3 -42 12 -47 20 -5 8 -9 114 -9
235 0 241 -1 236 58 249 22 5 32 12 30 22 -2 13 -25 16 -136 17 -74 0 -136 -1
-138 -3z"/>
<path d="M6005 3509 c-10 -15 21 -39 51 -39 50 0 54 -16 53 -228 -2 -250 -2
-253 -57 -270 -27 -9 -42 -20 -42 -30 0 -15 15 -17 127 -16 117 2 128 3 128
20 0 14 -10 20 -39 25 -21 3 -42 12 -47 20 -5 8 -9 97 -9 199 0 157 2 182 14
170 21 -23 278 -350 311 -398 26 -36 35 -42 66 -42 l37 0 4 253 c3 138 8 260
12 269 4 9 23 22 42 28 22 8 34 17 32 27 -2 12 -25 15 -128 15 -108 1 -125 -1
-128 -15 -3 -12 7 -18 37 -23 74 -12 74 -11 79 -200 2 -93 3 -178 1 -188 -3
-14 -37 21 -134 140 -72 87 -152 187 -179 222 l-49 62 -57 0 c-32 0 -71 3 -88
6 -19 4 -32 1 -37 -7z"/>
<path d="M4486 2585 c-44 -15 -91 -57 -114 -100 -24 -47 -20 -135 9 -192 37
-70 83 -95 175 -91 87 4 142 36 176 101 26 52 29 147 6 192 -48 91 -149 127
-252 90z m130 -40 c84 -55 98 -226 23 -289 -60 -51 -150 -23 -193 58 -25 50
-27 147 -3 193 32 61 111 79 173 38z"/>
<path d="M4976 2590 c-15 -5 -43 -19 -61 -32 -115 -78 -104 -278 18 -337 47
-23 155 -29 201 -11 26 10 69 67 63 84 -7 20 -23 15 -42 -14 -25 -38 -65 -54
-115 -47 -83 11 -134 78 -133 178 1 98 43 150 126 156 65 5 99 -12 112 -55 5
-18 14 -31 20 -29 13 5 24 96 12 104 -16 10 -172 13 -201 3z"/>
<path d="M5400 2588 c-115 -32 -173 -169 -121 -284 35 -78 100 -108 218 -102
65 3 77 7 94 28 21 27 35 68 26 77 -3 3 -24 -14 -46 -37 -39 -41 -42 -42 -91
-38 -63 6 -98 31 -127 88 -28 54 -29 120 -4 177 23 49 62 73 120 73 57 0 89
-17 101 -56 14 -42 26 -43 34 -3 13 69 10 76 -40 83 -63 8 -122 6 -164 -6z"/>
<path d="M6186 2585 c-42 -22 -55 -44 -56 -91 0 -52 16 -71 100 -127 56 -36
65 -47 68 -75 5 -46 -12 -62 -63 -62 -36 0 -48 5 -69 31 -14 17 -26 37 -26 45
0 8 -7 14 -16 14 -14 0 -16 -8 -10 -47 3 -26 11 -52 16 -57 16 -16 127 -20
160 -6 44 18 70 56 70 101 0 48 -26 78 -105 122 -70 39 -88 71 -61 111 30 47
109 31 121 -24 4 -16 10 -30 15 -30 9 0 20 36 20 71 0 22 -6 28 -31 33 -52 10
-102 7 -133 -9z"/>
<path d="M6763 2576 c-77 -36 -108 -88 -108 -182 0 -64 3 -77 30 -115 45 -63
85 -81 171 -77 80 4 124 26 164 86 28 40 38 132 21 185 -37 112 -160 158 -278
103z m152 -30 c59 -39 87 -184 50 -256 -48 -92 -168 -76 -223 30 -20 37 -23
56 -19 109 5 68 25 106 68 129 29 16 91 10 124 -12z"/>
<path d="M7680 2593 c-8 -3 -27 -17 -42 -31 -22 -20 -28 -35 -28 -68 0 -52 16
-71 100 -127 56 -36 65 -47 68 -75 5 -46 -12 -62 -63 -62 -36 0 -48 5 -69 31
-14 17 -26 37 -26 45 0 8 -7 14 -16 14 -14 0 -15 -8 -9 -47 4 -27 11 -52 16
-57 15 -16 126 -20 159 -6 45 19 70 56 70 105 0 49 -16 68 -105 117 -70 40
-88 72 -61 112 13 21 25 26 55 26 42 0 56 -11 66 -53 13 -49 35 -25 35 38 0
28 -4 33 -31 39 -37 7 -98 7 -119 -1z"/>
<path d="M3025 2578 c-22 -65 -102 -271 -116 -300 -12 -24 -29 -40 -45 -44
-48 -12 -18 -26 56 -26 75 0 104 14 54 26 -28 7 -29 25 -5 89 10 25 14 27 70
27 l59 0 17 -45 c19 -48 15 -75 -11 -75 -8 0 -14 -5 -12 -11 4 -11 344 -16
355 -6 3 3 -11 13 -31 21 l-36 15 0 120 c0 67 2 121 4 121 3 0 56 -65 117
-145 87 -112 118 -145 136 -145 l23 0 0 159 c0 88 3 167 6 176 4 9 17 21 30
26 48 18 24 29 -62 29 -62 0 -85 -3 -82 -12 3 -7 19 -16 36 -20 l32 -9 0 -119
c0 -66 -2 -120 -4 -120 -2 0 -55 63 -117 140 l-113 140 -59 0 c-42 0 -58 -3
-55 -12 3 -7 13 -15 24 -17 41 -7 44 -19 44 -150 0 -69 -3 -136 -6 -149 -9
-31 -60 -44 -97 -25 -32 16 -50 52 -118 236 -39 102 -47 117 -67 117 -12 0
-25 -6 -27 -12z m38 -126 c25 -64 23 -72 -21 -72 -21 0 -41 3 -44 6 -4 3 4 32
15 64 12 33 25 56 28 52 3 -4 13 -26 22 -50z"/>
<path d="M3752 2578 c3 -7 15 -15 29 -18 24 -6 24 -6 27 -154 3 -159 -2 -176
-45 -176 -15 0 -23 -5 -21 -12 6 -17 174 -22 245 -8 123 26 195 155 148 267
-38 91 -87 112 -258 113 -97 0 -128 -3 -125 -12z m266 -45 c39 -29 62 -80 62
-141 0 -96 -49 -155 -131 -156 -74 -1 -79 9 -79 174 0 75 3 140 8 144 13 14
112 0 140 -21z"/>
<path d="M5806 2507 c-59 -166 -98 -248 -126 -266 -15 -9 -28 -20 -29 -24 -2
-13 153 -11 157 2 2 6 -5 11 -16 11 -38 0 -45 24 -23 74 l20 46 56 0 56 0 19
-42 c26 -57 25 -67 -6 -79 -42 -15 -21 -22 68 -21 87 1 107 10 59 28 -25 10
-35 28 -84 155 -31 79 -61 156 -66 172 -7 18 -18 27 -33 27 -20 0 -27 -12 -52
-83z m80 -103 c6 -23 4 -24 -40 -24 -25 0 -46 4 -46 9 0 8 21 73 36 111 6 15
37 -45 50 -96z"/>
<path d="M6412 2578 c3 -7 15 -15 29 -18 24 -6 24 -6 27 -163 l3 -157 -31 -7
c-59 -11 -24 -25 65 -25 89 0 124 14 67 27 -27 5 -30 11 -36 58 -8 67 -8 196
0 235 4 21 13 32 27 34 11 2 22 9 25 16 3 9 -19 12 -88 12 -68 0 -91 -3 -88
-12z"/>
<path d="M7102 2578 c3 -7 13 -15 24 -17 40 -7 44 -20 44 -130 0 -152 -7 -181
-42 -195 -47 -17 -27 -27 60 -29 85 -2 106 9 54 29 -25 9 -30 18 -35 59 -10
68 -9 195 1 195 5 0 60 -65 121 -145 89 -115 118 -145 137 -145 l24 0 2 172 3
173 28 13 c47 23 30 32 -59 32 -62 0 -85 -3 -82 -12 3 -7 19 -16 36 -20 l32
-9 0 -121 c0 -99 -2 -119 -13 -109 -8 6 -60 69 -118 141 l-104 130 -58 0 c-43
0 -58 -3 -55 -12z"/>
</g>
</svg>
